<?xml version="1.0" standalone="no"?>
<!DOCTYPE svg PUBLIC "-//W3C//DTD SVG 20010904//EN"
 "http://www.w3.org/TR/2001/REC-SVG-20010904/DTD/svg10.dtd">
<svg version="1.0" xmlns="http://www.w3.org/2000/svg"
 width="960.000000pt" height="960.000000pt" viewBox="0 0 960.000000 960.000000"
 preserveAspectRatio="xMidYMid meet">
<metadata>
Created by potrace 1.14, written by Peter Selinger 2001-2017
</metadata>
<g transform="translate(0.000000,960.000000) scale(0.100000,-0.100000)"
fill="#000000" stroke="none">
<path d="M0 4800 l0 -4800 55 0 c50 0 55 2 46 17 -5 10 -12 39 -16 66 -4 26
-11 49 -15 52 -10 6 -1 45 11 45 15 0 10 28 -8 46 -16 16 -16 16 5 10 25 -8
27 -4 9 24 -10 17 -9 22 1 29 21 13 -3 92 -25 84 -11 -4 -14 -2 -11 8 2 8 16
15 30 17 36 4 48 -36 48 -168 0 -59 3 -135 6 -169 l7 -61 4728 0 4729 0 0
4585 0 4585 -22 -9 c-13 -5 -48 -21 -78 -35 -69 -32 -101 -33 -137 -2 -27 24
-28 28 -34 148 -3 67 -11 136 -17 152 -7 16 -15 62 -19 102 l-6 74 -523 0
-524 0 0 -45 c0 -58 -25 -85 -79 -85 -32 0 -44 6 -70 35 -17 19 -38 49 -46 65
-14 26 -21 30 -58 29 -23 0 -36 -3 -29 -6 15 -6 173 -210 226 -293 l39 -61 -7
-107 c-4 -59 -7 -111 -7 -117 0 -5 7 -34 15 -64 13 -44 14 -71 5 -152 -5 -54
-15 -111 -22 -127 -14 -33 -88 -102 -109 -102 -8 0 -19 -5 -25 -11 -7 -7 -17
-8 -28 -2 -20 12 -112 -16 -125 -37 -8 -13 -10 -12 -10 3 0 9 -4 17 -10 17 -5
0 -10 -6 -10 -12 0 -18 -50 -74 -63 -70 -5 2 -13 -1 -16 -6 -3 -5 -25 -13 -48
-17 -36 -6 -43 -4 -53 15 -6 11 -15 18 -20 15 -13 -8 -28 46 -23 90 2 22 11
47 19 57 9 9 13 22 8 29 -5 9 -2 10 11 5 11 -4 22 -2 27 6 6 10 10 10 18 -2 8
-12 10 -13 10 -1 0 10 7 8 23 -7 13 -12 33 -22 45 -22 11 0 24 -4 27 -10 13
-21 42 -8 82 38 23 26 43 58 44 72 1 14 2 32 3 40 1 8 4 20 7 25 7 11 14 163
11 235 -4 116 -17 183 -36 194 -11 6 -38 28 -59 49 -37 36 -42 37 -69 26 -35
-14 -74 -62 -84 -104 -13 -52 -51 -102 -86 -114 -61 -20 -118 -23 -124 -6 -4
8 -12 15 -19 15 -7 0 -16 17 -20 38 -6 39 11 88 40 112 19 16 19 70 0 106 -8
16 -18 46 -21 66 -5 27 -12 38 -30 42 -23 6 -24 11 -24 81 l0 75 -372 -1
c-244 0 -363 -4 -343 -10 74 -23 95 -71 85 -194 -5 -49 -4 -97 1 -106 4 -9 6
-32 4 -50 -17 -126 -24 -211 -20 -249 2 -24 0 -50 -4 -59 -5 -9 -12 -54 -15
-100 -7 -93 -22 -121 -65 -121 -45 0 -157 100 -219 195 -22 33 -63 85 -92 115
-28 30 -73 82 -98 115 -25 33 -49 62 -53 65 -8 6 -63 126 -74 160 -4 14 -17
38 -29 54 -30 40 -104 115 -109 110 -2 -3 -20 14 -39 36 -35 40 -36 40 -107
40 -39 0 -71 -4 -71 -8 0 -4 20 -30 44 -58 213 -237 244 -276 332 -422 23 -38
121 -142 135 -142 5 0 16 -15 25 -32 9 -18 20 -35 24 -38 4 -3 12 -27 18 -55
11 -52 7 -101 -10 -122 -7 -9 -5 -15 6 -19 11 -4 15 -16 14 -33 -2 -18 1 -25
12 -23 10 1 9 -3 -5 -14 -12 -10 -15 -18 -9 -20 13 -6 6 -103 -8 -121 -7 -9
-7 -13 0 -13 6 0 9 -7 5 -16 -3 -9 0 -20 8 -25 11 -6 11 -11 1 -21 -9 -9 -12
-9 -12 0 0 7 -5 12 -11 12 -6 0 -8 -9 -3 -22 3 -12 8 -42 9 -66 2 -25 8 -48
15 -52 6 -4 12 -20 14 -36 2 -16 4 -31 5 -33 0 -2 9 3 18 10 14 12 16 12 8 0
-7 -12 -1 -13 30 -8 21 3 41 10 44 15 3 5 18 12 34 16 21 5 27 12 27 34 0 15
-5 34 -10 42 -6 10 -4 20 5 30 9 10 11 20 5 30 -8 13 -10 12 -10 -2 0 -10 -4
-18 -10 -18 -5 0 -10 7 -10 15 0 8 -6 12 -14 9 -8 -3 -16 4 -20 20 -3 14 -13
26 -21 26 -8 0 -15 7 -15 15 0 9 -7 18 -16 22 -8 3 -13 11 -10 19 3 7 -2 18
-10 24 -19 16 -18 40 1 40 9 0 15 6 14 13 -3 27 2 52 9 41 4 -6 19 -14 34 -18
23 -5 26 -3 21 10 -5 14 -3 15 15 5 12 -7 22 -16 22 -22 0 -5 12 -14 26 -19
15 -6 25 -17 23 -27 -5 -51 1 -75 17 -69 14 5 16 1 11 -23 -4 -18 0 -42 9 -60
8 -16 17 -49 20 -73 6 -63 14 -89 22 -84 4 3 14 0 22 -5 13 -8 13 -10 0 -19
-13 -8 -12 -10 3 -10 21 0 22 -19 1 -27 -13 -5 -13 -7 -2 -14 10 -7 10 -9 1
-9 -7 0 -13 -8 -13 -19 0 -27 -57 -79 -120 -109 -30 -15 -61 -32 -68 -39 -7
-7 -20 -13 -27 -13 -7 0 -21 -7 -29 -16 -9 -8 -16 -13 -16 -10 0 2 -13 1 -28
-4 -31 -8 -48 -2 -88 35 -21 20 -25 32 -25 79 0 31 -5 58 -10 61 -5 4 -9 34
-9 67 0 34 -3 58 -6 55 -4 -3 -24 16 -46 43 -25 32 -62 61 -101 82 -84 45
-130 93 -147 154 -12 43 -30 65 -139 174 -69 69 -139 143 -156 165 -16 21 -39
48 -50 59 -138 143 -187 214 -210 301 -4 17 -7 110 -6 208 l2 177 -220 0 -220
0 1 -267 c0 -148 -3 -284 -7 -303 -7 -33 -29 -59 -50 -60 -21 0 -113 66 -157
114 -51 56 -69 55 -62 -4 3 -29 1 -40 -8 -40 -7 0 -25 -11 -40 -25 -30 -27
-58 -31 -107 -14 -24 9 -43 8 -76 -1 -43 -12 -101 -50 -76 -50 7 0 10 -4 7 -8
-8 -14 -66 -1 -66 14 0 8 7 14 16 14 8 0 12 5 9 10 -3 6 -18 10 -32 10 -31 0
-133 31 -133 40 0 4 15 11 33 17 l32 10 -33 7 c-25 6 -38 4 -52 -9 -15 -14
-25 -15 -57 -6 -25 7 -39 7 -41 1 -2 -6 -13 -10 -23 -10 -11 0 -30 -5 -41 -11
-22 -12 -42 5 -33 28 2 7 -3 16 -12 21 -12 7 -16 26 -16 79 0 38 3 75 7 81 4
7 2 12 -4 12 -7 0 -10 6 -8 12 3 7 20 13 39 14 19 1 45 4 59 7 14 4 39 9 55
12 17 4 46 13 66 21 31 14 40 14 78 0 39 -13 44 -13 60 3 19 19 37 74 46 146
8 62 23 91 61 116 l29 19 -67 0 -67 0 -11 -42 c-11 -38 -51 -103 -75 -120 -18
-13 -75 -8 -100 8 -27 18 -32 53 -15 98 18 50 7 56 -101 56 -75 0 -99 -3 -99
-13 0 -21 22 -37 52 -37 18 0 28 -5 28 -15 0 -8 7 -15 16 -15 24 0 14 -92 -17
-155 -25 -52 -40 -59 -101 -48 -29 6 -60 63 -73 136 -9 49 -19 53 -58 25 -22
-16 -45 -23 -74 -22 -24 0 -43 -3 -43 -8 0 -9 -51 20 -62 37 -4 5 -8 24 -8 40
-1 69 -6 75 -76 75 l-64 0 0 -31 c0 -17 -11 -63 -24 -102 -13 -40 -29 -92 -36
-117 -8 -25 -16 -49 -19 -55 -3 -5 -6 -17 -8 -25 -1 -8 -6 -23 -11 -35 -19
-40 -42 -112 -67 -213 -27 -108 -54 -168 -86 -190 -11 -7 -19 -20 -19 -28 0
-17 5 -17 31 -4 14 8 19 7 19 -1 0 -6 9 -9 20 -6 21 5 35 -7 43 -38 3 -13 5
-9 6 12 0 17 6 35 11 38 15 9 12 41 -4 55 -8 6 -12 18 -9 26 6 17 33 19 33 3
0 -8 5 -7 16 2 13 11 14 9 9 -14 -8 -30 1 -33 27 -13 15 11 16 15 3 32 -20 26
-19 29 12 43 23 11 30 9 62 -14 29 -20 37 -22 39 -10 5 21 9 19 38 -12 24 -26
25 -26 39 -7 17 23 17 25 6 43 -7 10 -3 23 10 40 30 37 59 49 92 37 20 -8 30
-8 35 0 5 7 25 9 59 5 60 -8 77 -3 118 36 29 26 65 33 65 12 0 -5 -7 -21 -16
-34 -17 -26 -7 -34 14 -13 9 9 12 9 12 1 0 -7 -5 -15 -10 -18 -6 -3 -10 -13
-10 -22 0 -16 -4 -16 128 2 33 5 44 2 48 -10 7 -16 40 -21 46 -6 4 12 88 2 88
-10 0 -5 -11 -9 -25 -9 -35 0 -50 -32 -24 -53 10 -9 19 -21 19 -27 0 -19 -30
-10 -46 15 -15 24 -17 24 -30 8 -19 -25 -17 -30 14 -41 24 -9 25 -10 5 -11
-13 -1 -23 -5 -23 -11 0 -13 4 -13 50 1 21 7 50 9 64 5 23 -6 24 -9 14 -31 -8
-18 -8 -29 -1 -36 13 -13 138 -23 155 -12 7 4 30 8 51 9 37 2 38 2 21 -17 -10
-11 -25 -19 -33 -17 -9 1 -26 -2 -39 -6 -14 -5 -29 -3 -38 5 -12 10 -13 9 -8
-5 3 -9 17 -16 31 -16 13 0 45 -14 69 -31 25 -17 55 -32 67 -34 95 -14 124
-20 146 -31 13 -7 28 -11 33 -8 8 5 60 -9 115 -33 17 -7 36 -13 42 -13 15 0
14 17 -1 23 -10 4 -10 6 -1 6 7 1 17 -8 23 -19 6 -11 17 -20 25 -20 8 0 15 -4
15 -9 0 -11 -25 -21 -51 -21 -11 0 -29 -6 -40 -12 -17 -10 -23 -10 -26 -1 -2
7 -11 9 -19 6 -20 -7 -17 14 4 26 13 8 9 10 -23 11 -23 0 -46 -5 -51 -10 -7
-7 -21 1 -42 25 -32 34 -69 52 -42 20 16 -19 7 -19 -31 0 -41 22 -54 9 -21
-21 17 -17 23 -27 15 -30 -8 -4 -10 -17 -7 -37 4 -22 3 -28 -4 -18 -5 7 -14
11 -20 7 -5 -3 -16 2 -23 11 -11 13 -11 17 -1 20 20 7 14 22 -7 16 -10 -3 -22
0 -25 6 -4 6 -16 11 -27 11 -10 0 -19 5 -19 10 0 6 -11 10 -25 10 -14 0 -25
-4 -25 -9 0 -11 -43 -23 -50 -13 -8 11 -81 42 -114 48 -23 4 -27 2 -22 -11 3
-9 6 -20 6 -23 0 -4 5 0 10 8 8 13 10 13 10 -2 0 -10 27 -30 73 -53 39 -20 81
-47 93 -60 12 -12 35 -26 52 -30 18 -3 34 -11 37 -16 9 -13 41 -11 54 4 8 10
7 17 -2 27 -10 10 -7 11 13 6 14 -4 30 -7 35 -7 6 0 44 3 85 6 69 6 114 -4 98
-20 -3 -4 -39 -7 -80 -8 -63 -2 -73 -4 -72 -19 2 -21 -9 -23 -38 -7 -16 9 -19
8 -16 -3 6 -18 46 -23 64 -7 13 11 111 15 121 5 3 -2 18 0 34 4 27 8 40 -2 19
-15 -5 -3 -7 -12 -3 -20 6 -17 -6 -19 -41 -5 -23 9 -26 7 -26 -14 0 -19 -6
-25 -30 -28 -20 -3 -30 0 -30 9 0 7 3 12 8 12 38 -6 58 14 23 24 -20 5 -97
-27 -94 -40 4 -19 -8 -15 -14 5 -3 12 -12 22 -19 22 -8 0 -14 4 -14 9 0 5 -8
7 -19 4 -10 -3 -22 0 -26 7 -5 8 -11 8 -22 -2 -14 -11 -15 -10 -8 12 6 20 5
23 -6 14 -8 -6 -31 -11 -51 -13 -34 -1 -38 1 -38 23 0 30 -48 47 -66 22 -10
-14 -14 -12 -37 14 -15 16 -27 34 -27 39 0 17 -22 24 -31 10 -8 -12 -12 -11
-23 4 -7 9 -18 17 -23 17 -17 0 -64 41 -58 50 3 5 -4 14 -15 20 -11 6 -20 17
-20 25 0 8 -9 29 -20 49 -21 34 -43 50 -54 38 -4 -3 -16 -7 -28 -9 -11 -2 -27
-11 -34 -21 -7 -9 -14 -12 -14 -6 0 6 -10 9 -24 7 -18 -4 -27 1 -36 17 -6 12
-14 19 -17 16 -3 -2 -17 6 -31 20 -15 13 -35 24 -44 24 -11 0 -18 8 -18 21 0
19 1 19 22 5 27 -19 48 -20 48 -3 0 15 -45 57 -61 57 -6 0 -9 7 -6 14 4 10 1
13 -8 10 -8 -4 -13 -22 -13 -52 0 -31 -6 -50 -16 -58 -15 -10 -15 -12 -1 -18
8 -3 15 -12 15 -21 0 -8 5 -15 10 -15 6 0 10 -13 10 -30 0 -22 4 -28 15 -24
15 6 83 -33 86 -48 8 -47 45 -102 60 -92 5 3 9 -1 9 -9 0 -18 43 -47 70 -47
11 0 20 -6 20 -12 0 -13 44 -38 67 -38 7 0 13 -9 13 -19 0 -11 8 -26 18 -33 9
-7 23 -21 31 -30 12 -16 11 -18 -7 -18 -12 0 -22 8 -24 18 -3 14 -5 13 -10 -5
-5 -20 0 -23 50 -35 31 -6 64 -20 74 -30 10 -10 27 -18 37 -18 11 0 23 -4 26
-10 3 -5 16 -10 27 -10 11 0 29 -10 40 -22 13 -15 31 -23 51 -23 25 0 33 -5
35 -22 3 -19 -1 -21 -31 -18 -39 3 -77 21 -77 35 0 6 -4 10 -10 10 -5 0 -39
14 -75 30 -37 17 -71 27 -77 24 -6 -4 -13 -3 -17 2 -3 5 -24 21 -47 37 -31 21
-52 27 -92 27 -29 0 -52 5 -52 10 0 6 5 10 10 10 17 0 11 20 -7 27 -10 3 -37
26 -60 49 -23 24 -46 44 -51 44 -11 0 -52 43 -52 55 0 5 5 4 11 -2 6 -6 17 -9
23 -7 7 3 18 -7 26 -21 7 -14 21 -25 31 -25 9 0 19 -6 22 -12 3 -9 8 -10 15
-3 8 8 0 22 -28 49 -22 21 -40 45 -40 52 0 14 -34 37 -43 28 -3 -3 -5 1 -4 8
2 26 -25 79 -38 74 -14 -5 -55 34 -55 53 0 7 -4 9 -10 6 -6 -4 -6 -13 -1 -23
5 -9 14 -36 20 -59 6 -23 17 -48 24 -55 6 -7 19 -22 27 -33 14 -18 13 -19 -1
-8 -9 7 -18 10 -22 7 -3 -3 -8 4 -12 17 -4 12 -38 53 -77 91 -38 37 -66 73
-63 78 8 13 -34 82 -45 75 -13 -8 -41 6 -34 17 3 5 -1 17 -9 26 -9 9 -19 31
-23 47 -7 28 -6 29 11 15 16 -13 18 -13 13 0 -3 8 -13 15 -24 15 -10 1 -25 4
-32 9 -21 13 -23 2 -7 -39 9 -20 25 -39 35 -42 15 -4 18 -11 13 -33 -4 -25 0
-32 36 -55 23 -14 39 -30 36 -35 -4 -6 1 -24 9 -42 20 -39 13 -49 -9 -14 -12
18 -21 23 -29 17 -8 -7 -16 -3 -25 11 l-13 22 -14 -27 c-17 -31 -12 -72 12
-98 15 -17 15 -19 1 -19 -8 0 -27 14 -41 31 -24 28 -27 29 -47 15 -19 -13 -25
-13 -50 0 -15 7 -35 14 -44 14 -9 0 -26 10 -37 23 -16 18 -19 19 -14 4 4 -11
-2 -29 -14 -44 -22 -28 -17 -47 9 -40 10 2 26 -2 37 -10 16 -12 17 -15 4 -23
-40 -25 -76 5 -87 73 -5 35 -23 53 -23 23 0 -8 -3 -21 -6 -30 -3 -9 -1 -16 6
-16 6 0 8 5 4 12 -4 6 -3 8 4 5 5 -4 8 -16 5 -27 -6 -22 -23 -38 -23 -21 0 6
-7 11 -15 11 -11 0 -13 -8 -8 -30 4 -23 2 -30 -10 -30 -9 0 -19 5 -22 10 -4 6
-11 8 -16 4 -15 -9 -93 64 -95 89 -2 45 -15 64 -54 83 -29 14 -39 24 -36 37 2
9 1 17 -4 17 -38 0 -99 -146 -76 -182 6 -10 15 -18 21 -18 13 -1 49 -79 40
-88 -6 -6 -23 11 -46 48 -7 13 -12 11 -29 -10 -11 -14 -18 -30 -16 -36 2 -6 0
-17 -4 -24 -6 -9 -11 -1 -16 25 -8 43 5 71 30 69 11 -1 16 4 14 15 -2 9 -12
16 -23 16 -14 0 -21 8 -23 24 -5 31 18 101 32 101 6 0 6 4 -1 11 -8 8 -9 19
-2 37 5 14 7 32 5 39 -3 8 1 16 9 19 8 4 15 11 15 16 0 6 -7 8 -15 4 -8 -3
-15 -1 -15 5 0 5 10 14 23 19 12 5 16 9 10 9 -7 1 -13 7 -13 15 0 8 6 16 13
19 6 2 10 7 7 10 -3 4 -18 0 -32 -7 -25 -13 -26 -12 -31 13 -2 14 -3 47 -1 74
4 51 1 55 -22 32 -25 -24 -29 -18 -29 40 0 49 2 55 18 51 13 -3 17 0 13 10 -3
8 -2 14 3 14 5 0 11 -9 14 -20 12 -45 22 -15 21 63 -1 45 3 90 8 100 5 10 5
24 -2 36 -7 14 -6 32 4 63 7 24 19 84 25 133 7 50 15 105 18 123 l5 32 -156 0
-156 0 0 -52 c0 -29 -4 -60 -10 -68 -5 -8 -5 -17 0 -20 7 -4 -3 -143 -14 -190
-6 -30 -18 -50 -30 -50 -7 0 -11 -14 -10 -36 2 -30 -1 -35 -17 -31 -23 6 -41
-15 -33 -37 5 -12 0 -19 -15 -23 -15 -4 -20 -11 -16 -23 4 -12 -1 -19 -17 -24
-16 -4 -19 -8 -11 -14 13 -8 6 -55 -7 -47 -5 3 -11 1 -15 -5 -12 -20 -25 -10
-19 15 7 27 -8 33 -36 15 -11 -7 -12 -10 -2 -10 10 0 10 -4 -2 -16 -20 -19
-20 -25 -1 -18 11 5 13 2 9 -10 -3 -8 -11 -14 -16 -13 -17 3 -58 -83 -58 -122
0 -20 -7 -44 -14 -54 -9 -12 -12 -32 -8 -59 4 -30 2 -39 -6 -34 -8 5 -12 0
-12 -13 0 -10 -6 -22 -12 -24 -7 -3 3 -5 23 -4 31 2 35 5 31 25 -3 15 0 22 11
22 20 0 35 -22 19 -28 -7 -2 -12 -14 -12 -27 0 -13 -6 -26 -12 -28 -10 -4 -10
-7 0 -15 11 -7 11 -12 0 -23 -8 -8 -15 -33 -16 -57 -2 -24 -7 -54 -12 -67 -5
-14 -7 -32 -4 -40 4 -9 0 -15 -9 -15 -15 0 -32 -43 -28 -69 1 -8 -3 -18 -11
-22 -8 -6 -2 -9 20 -9 27 0 32 4 32 24 0 13 6 27 13 30 10 5 10 7 -1 12 -6 3
-12 10 -12 15 0 6 4 8 10 4 14 -9 35 33 51 100 13 60 13 60 23 27 5 -17 14
-32 21 -32 10 0 30 -41 22 -45 -1 -1 -13 -10 -27 -19 l-25 -18 25 7 c53 16 55
16 36 3 -42 -29 -62 -48 -43 -42 9 3 17 1 17 -5 0 -6 -8 -11 -17 -11 -14 0
-19 -10 -20 -43 -2 -23 -9 -47 -18 -53 -10 -8 -11 -14 -4 -21 7 -7 8 -17 3
-25 -5 -7 -10 -17 -11 -23 -19 -78 -26 -101 -35 -112 -6 -7 -8 -13 -5 -13 4 0
-4 -19 -16 -42 -24 -46 -54 -66 -42 -28 5 16 4 21 -6 18 -8 -3 -13 -12 -11
-22 2 -9 -4 -16 -13 -16 -8 0 -15 5 -15 11 0 5 -4 8 -9 4 -5 -3 -12 -1 -16 5
-4 6 -15 4 -31 -6 -17 -12 -24 -13 -24 -4 0 7 -7 10 -15 6 -22 -8 -19 21 5 46
12 13 16 26 11 31 -6 6 -5 21 1 39 6 16 8 32 4 35 -3 3 6 14 19 25 14 11 25
28 25 38 0 23 36 36 55 20 12 -10 15 -9 15 4 0 13 5 16 19 11 18 -5 19 -3 8
25 -12 30 -27 41 -27 17 0 -7 -9 -18 -19 -24 -17 -11 -20 -9 -26 17 -4 16 -4
38 -1 47 4 12 -2 23 -15 31 -17 11 -20 11 -17 1 2 -7 -9 -24 -24 -37 -16 -14
-27 -30 -24 -37 2 -7 -1 -21 -8 -31 -7 -9 -11 -26 -8 -36 2 -10 -1 -18 -7 -18
-6 0 -8 -7 -4 -17 4 -10 2 -14 -4 -10 -6 4 -10 -1 -9 -11 0 -9 -4 -16 -9 -15
-6 1 -20 -12 -30 -28 -11 -16 -24 -29 -29 -29 -5 0 -3 7 4 15 8 10 9 15 2 15
-6 0 -15 -7 -20 -16 -8 -15 -10 -15 -15 0 -4 10 -3 15 3 11 6 -3 10 -1 10 5 0
6 -6 13 -14 16 -19 7 -8 51 17 69 12 8 16 15 9 15 -6 0 -12 7 -12 15 0 8 4 15
9 15 6 0 8 22 6 50 -1 27 0 48 4 46 4 -3 6 7 5 22 0 14 -6 28 -12 30 -8 2 -7
8 3 19 8 8 15 25 15 38 0 13 8 31 17 41 17 17 16 17 -12 11 -24 -6 -26 -5 -12
3 9 6 17 18 17 25 0 8 7 15 15 15 8 0 15 7 15 15 0 8 -5 15 -12 15 -6 0 -9 3
-5 6 3 3 0 22 -6 42 -18 55 -10 264 13 362 7 28 9 57 6 65 -3 8 -2 15 2 15 4
0 8 17 9 38 9 189 13 248 18 263 3 9 1 20 -5 24 -6 4 -8 15 -5 25 3 11 1 29
-6 41 -10 19 -9 21 6 15 15 -5 16 -2 10 21 -3 15 -14 33 -23 40 -16 12 -16 13
0 7 23 -8 17 24 -8 44 -13 10 -15 16 -7 19 7 3 13 9 13 14 0 5 -440 9 -1040 9
l-1040 0 0 -4800z m3673 4439 c12 -7 34 -23 49 -38 14 -14 34 -26 45 -26 15 0
17 -6 15 -34 -2 -19 -9 -39 -15 -46 -43 -42 -113 -57 -125 -26 -3 9 -12 22
-19 29 -22 23 -27 81 -9 118 17 37 26 40 59 23z m-1210 -307 c-4 -9 -11 -20
-17 -24 -6 -4 -5 -12 4 -22 11 -14 10 -16 -4 -10 -20 7 -23 53 -3 47 4 -2 7 6
7 18 0 11 4 18 10 14 5 -3 6 -13 3 -23z m2117 8 c0 -12 -30 -17 -77 -12 -63 6
-52 17 17 19 33 1 60 -2 60 -7z m380 -20 c0 -5 -2 -10 -4 -10 -3 0 -8 5 -11
10 -3 6 -1 10 4 10 6 0 11 -4 11 -10z m629 -27 c30 -16 59 -37 65 -47 63 -111
179 -249 232 -276 35 -17 94 -78 148 -150 28 -38 41 -48 47 -38 7 11 9 11 9
-1 0 -8 20 -37 43 -65 62 -72 81 -128 73 -213 -8 -83 -8 -83 -4 -163 2 -36 0
-77 -5 -92 -10 -30 -37 -38 -37 -11 0 39 -66 201 -98 243 -35 45 -101 109
-113 110 -12 0 -21 -92 -10 -103 6 -6 11 -17 11 -24 0 -7 9 -22 20 -33 11 -11
20 -31 20 -44 0 -13 6 -39 14 -57 15 -36 56 -201 56 -225 0 -20 -20 -17 -26 4
-3 9 -14 34 -24 54 -11 20 -20 43 -20 50 0 8 -15 43 -33 78 -23 47 -39 66 -55
68 -22 3 -28 13 -16 25 17 17 9 132 -8 121 -5 -3 -7 -12 -4 -20 3 -7 -3 -18
-13 -24 -24 -12 -36 -76 -22 -113 6 -16 7 -29 1 -32 -6 -4 -5 -13 2 -24 18
-30 4 -48 -37 -47 -32 1 -38 5 -54 41 -19 41 -19 41 -37 -12 -5 -15 -8 -14
-20 10 -8 15 -19 25 -23 22 -5 -3 -16 13 -25 36 -17 42 -23 42 -61 8 -11 -10
-30 -17 -43 -16 -18 1 -22 7 -22 33 0 18 -3 41 -6 51 -6 17 -6 17 7 0 13 -16
14 -12 14 33 0 40 -3 50 -17 50 -9 0 -19 -9 -23 -20 -3 -11 -12 -19 -18 -17
-7 1 -12 -11 -12 -31 0 -18 -4 -31 -10 -28 -7 2 -9 -13 -5 -43 4 -34 9 -45 21
-44 15 3 39 -46 39 -80 0 -19 25 -23 35 -7 7 12 25 4 25 -11 0 -6 -4 -7 -10
-4 -5 3 -10 4 -10 0 0 -11 63 -130 78 -147 8 -10 12 -18 8 -18 -4 0 2 -15 13
-34 12 -18 21 -43 21 -55 0 -13 19 -41 46 -67 25 -25 43 -48 39 -52 -3 -4 -10
0 -15 8 -6 8 -10 11 -10 7 0 -7 45 -72 60 -87 3 -3 6 -12 8 -20 2 -8 10 -22
18 -31 24 -27 38 -78 24 -94 -8 -10 -9 -19 -1 -32 10 -17 10 -17 11 0 0 33 24
11 37 -34 11 -39 11 -42 -2 -25 -8 11 -18 17 -21 13 -4 -4 -2 -13 4 -20 7 -8
26 -40 43 -73 18 -32 45 -72 61 -89 29 -30 61 -78 112 -167 15 -27 31 -48 36
-48 17 0 103 -94 106 -115 1 -11 4 -26 5 -34 3 -9 -8 -17 -28 -22 -24 -7 -30
-13 -26 -28 3 -12 11 -17 19 -14 17 6 19 -18 3 -34 -8 -8 -6 -17 10 -34 11
-13 21 -31 21 -41 0 -11 5 -16 10 -13 15 9 12 -4 -4 -21 -10 -9 -14 -37 -14
-84 0 -65 1 -70 19 -65 21 7 22 5 13 -19 -3 -9 -10 -14 -14 -11 -4 3 -13 -30
-19 -73 -16 -111 -17 -125 -10 -142 17 -41 44 -86 54 -92 6 -4 12 -26 14 -49
1 -23 7 -51 13 -62 11 -22 -6 -41 -31 -32 -11 4 -11 3 -1 -9 13 -17 19 -110 8
-122 -4 -4 -15 -1 -23 6 -14 12 -16 9 -14 -28 2 -27 8 -42 16 -42 7 0 13 -4
13 -10 0 -5 -9 -10 -21 -10 -11 0 -32 -14 -46 -31 -15 -17 -29 -26 -32 -20 -6
10 -14 7 -70 -27 -15 -9 -21 -10 -19 -1 2 6 -3 14 -11 17 -10 3 -12 -2 -7 -21
5 -21 2 -26 -19 -31 -14 -4 -25 -11 -25 -17 0 -6 4 -8 9 -5 5 4 11 3 14 -1 2
-5 2 -2 1 5 -4 14 15 16 34 3 11 -6 10 -11 -3 -25 -9 -9 -21 -16 -26 -16 -5 0
-9 -7 -9 -15 0 -13 11 -19 31 -17 3 1 4 -10 1 -23 -4 -25 -22 -35 -22 -14 0
14 -30 38 -48 39 -9 0 -11 -9 -7 -34 7 -36 -10 -59 -26 -35 -6 10 -9 6 -9 -13
0 -17 -9 -33 -26 -45 -23 -17 -25 -23 -15 -41 6 -11 11 -32 11 -46 0 -16 6
-26 15 -26 8 0 15 -4 15 -10 0 -13 -17 -13 -25 0 -4 6 -16 8 -28 5 -12 -4 -30
-9 -40 -12 -12 -3 -17 0 -16 9 5 20 -21 59 -33 52 -7 -5 -9 0 -5 15 4 17 0 25
-19 33 -13 6 -24 17 -24 24 0 19 -41 22 -68 5 -18 -11 -20 -16 -10 -22 9 -6 6
-9 -9 -9 -18 0 -23 -6 -23 -26 0 -20 4 -25 18 -22 14 4 17 -2 18 -35 0 -23 5
-42 12 -45 7 -2 12 -10 12 -17 0 -8 9 -20 19 -27 11 -8 23 -27 27 -43 3 -17
17 -40 30 -51 l24 -21 -26 0 c-29 0 -54 -20 -39 -31 16 -11 19 -46 3 -36 -24
15 -38 13 -38 -7 0 -24 -26 -25 -39 -2 -7 14 -12 15 -24 4 -13 -10 -21 -9 -47
4 -18 9 -29 19 -26 22 10 10 -15 33 -38 34 -36 1 -130 35 -140 51 -5 8 -6 23
-2 33 5 13 9 15 20 6 9 -8 16 -8 20 -2 4 6 -3 15 -15 22 -17 8 -23 8 -29 -1
-4 -7 -13 -9 -19 -6 -6 4 -11 0 -11 -8 0 -9 -8 -16 -19 -16 -15 0 -18 -5 -13
-22 8 -34 -16 -12 -33 29 -9 20 -18 34 -21 30 -3 -3 -1 -14 4 -24 5 -11 5 -32
-2 -55 -9 -29 -14 -35 -26 -28 -8 5 -25 10 -37 10 -20 0 -23 -5 -23 -34 0 -19
5 -38 12 -42 8 -5 9 -2 5 9 -3 9 -2 19 3 22 5 3 7 12 3 20 -3 8 0 15 6 15 10
0 41 -57 41 -75 0 -13 -18 -3 -29 18 l-12 22 5 -23 c3 -15 -2 -26 -15 -33 -24
-13 -33 -7 -49 31 -7 18 -20 30 -31 30 -10 0 -21 5 -24 10 -9 14 -28 1 -21
-15 2 -7 -1 -18 -7 -24 -8 -8 -7 -11 6 -11 9 0 17 -4 17 -10 0 -5 -17 -10 -37
-9 -21 0 -45 -1 -53 -2 -32 -4 -50 2 -50 16 0 12 4 13 19 4 10 -7 26 -9 37 -4
11 4 14 9 9 11 -6 2 -9 22 -7 44 3 32 1 40 -12 40 -11 0 -16 -9 -16 -31 0 -24
-3 -30 -16 -25 -9 3 -20 6 -25 6 -13 0 -11 34 2 47 9 9 7 16 -6 29 -23 23 -33
5 -28 -49 4 -34 2 -40 -8 -30 -11 11 -15 23 -21 70 -2 20 -28 -6 -28 -28 0
-10 10 -27 22 -39 12 -11 18 -23 13 -27 -4 -5 -10 -2 -13 6 -3 10 -6 10 -12 1
-6 -9 -12 -9 -29 1 -25 16 -31 75 -6 65 14 -5 21 16 16 47 0 4 8 7 19 7 11 0
20 5 20 10 0 6 -16 10 -35 10 -25 0 -35 4 -35 16 0 11 6 14 22 9 16 -6 20 -4
15 8 -3 9 -1 18 6 21 9 5 9 7 0 12 -7 3 -13 12 -13 21 0 8 6 13 13 10 14 -4
105 87 117 117 4 12 11 44 15 73 12 91 44 91 138 1 50 -48 196 -123 255 -130
23 -4 42 -2 42 2 0 5 14 5 31 0 16 -5 37 -6 46 -3 8 3 18 1 22 -4 3 -5 18 -13
33 -16 25 -7 26 -5 23 24 -3 18 -14 38 -25 46 -21 15 -27 48 -10 58 15 9 12
25 -4 25 -8 0 -16 7 -20 15 -3 9 -18 15 -35 15 -20 0 -34 7 -41 20 -9 16 -8
20 5 20 8 0 15 -5 15 -11 0 -5 5 -7 11 -3 8 4 4 13 -12 25 -21 16 -24 16 -35
1 -12 -16 -13 -16 -19 0 -4 10 -11 16 -16 13 -4 -3 -16 9 -25 27 -20 38 -35
51 -48 38 -9 -9 -52 13 -73 38 -7 9 -25 17 -39 18 -15 2 -30 7 -33 12 -3 5
-14 11 -23 15 -10 3 -18 16 -18 29 0 21 0 21 -15 2 -12 -16 -14 -16 -15 -3 0
9 -16 27 -35 40 -19 13 -35 28 -35 32 0 5 -4 6 -9 3 -5 -3 -14 1 -21 9 -7 8
-21 15 -31 15 -11 0 -19 5 -19 10 0 6 -7 10 -15 10 -22 0 -18 -19 9 -55 40
-52 86 -150 86 -183 0 -22 -5 -31 -22 -35 -12 -4 -25 -2 -28 3 -8 12 -60 24
-60 13 0 -5 -14 -10 -30 -10 -17 0 -40 -9 -53 -20 -12 -11 -33 -23 -47 -26
-14 -2 -56 -16 -95 -30 -60 -22 -72 -24 -81 -11 -6 7 -16 14 -22 14 -6 0 -12
6 -15 13 -3 9 -7 9 -20 -2 -11 -8 -27 -11 -43 -7 -15 4 -30 3 -33 -3 -4 -6
-15 -5 -31 4 -14 8 -32 17 -40 21 -8 4 -22 13 -30 20 -8 7 -28 15 -43 18 -23
4 -28 2 -23 -10 5 -12 2 -12 -16 -3 -18 9 -24 8 -34 -6 -12 -16 -16 -16 -31
-4 -15 12 -16 12 -8 -1 6 -12 5 -13 -6 -2 -19 17 -39 15 -39 -5 -1 -17 -1 -17
-11 0 -5 9 -7 23 -2 30 4 6 8 15 8 19 0 11 55 68 65 68 6 0 19 -5 30 -12 23
-15 69 5 69 31 0 9 4 33 9 54 7 26 7 37 -1 37 -6 0 -3 6 8 14 12 8 16 20 12
34 -3 12 -1 24 3 27 10 6 10 65 1 65 -3 0 -7 13 -7 30 -1 17 3 28 10 27 7 -1
10 10 9 29 -2 24 2 33 16 37 18 4 18 7 3 56 -12 39 -18 48 -23 34 -5 -12 -8
-6 -8 19 -1 20 -8 43 -16 52 -8 8 -15 17 -15 21 0 4 -7 13 -16 22 -8 9 -13 21
-10 28 3 8 -2 16 -10 19 -9 3 -13 10 -10 15 4 5 8 33 11 63 7 73 9 84 21 99 6
8 10 34 9 58 -1 29 3 45 13 48 11 5 11 7 1 14 -10 6 -10 11 0 22 8 11 9 17 1
22 -22 14 3 23 57 21 50 -2 59 -6 77 -32 12 -16 40 -49 64 -74 25 -26 63 -85
89 -140 26 -52 67 -121 92 -152 25 -32 56 -71 69 -88 13 -16 29 -30 37 -30 7
0 15 -7 19 -15 3 -8 16 -15 30 -15 14 0 27 -4 31 -9 7 -13 44 -9 74 8 14 8 36
10 58 6 24 -4 40 -2 52 8 9 8 27 18 41 22 14 4 32 13 40 20 8 7 24 15 35 17
11 1 28 16 38 32 10 15 31 42 47 60 17 17 30 34 30 38 0 8 147 108 158 108 23
1 32 18 23 44 -8 19 -7 32 2 46 13 21 37 27 37 9 0 -6 8 -9 17 -7 9 2 15 7 14
12 -2 5 14 18 36 29 51 27 123 86 123 103 0 7 9 18 20 24 11 6 20 17 20 25 0
8 4 15 10 15 5 0 16 16 24 35 10 23 20 33 29 29 11 -4 15 2 13 20 0 16 -8 29
-19 32 -15 5 -18 13 -13 47 3 22 12 44 18 48 10 7 10 11 0 21 -9 9 -12 9 -12
0 0 -7 -17 -1 -40 14 -33 22 -38 29 -28 41 6 8 7 13 2 12 -22 -4 -33 2 -28 15
4 12 -2 13 -36 5 -74 -17 -83 -15 -75 13 6 18 5 20 -11 13 -24 -11 -73 -11
-99 -1 -14 6 -16 5 -6 -2 11 -8 10 -12 -5 -20 -14 -7 -24 -6 -38 3 -19 15 -71
10 -93 -8 -9 -6 -13 -6 -13 1 0 7 -7 9 -17 5 -12 -5 -15 -2 -10 10 5 14 0 16
-41 12 -89 -9 -147 -15 -173 -19 -17 -3 -31 3 -40 15 -17 24 -27 24 -52 2 -11
-10 -17 -12 -13 -5 12 21 -24 19 -79 -3 -19 -9 -37 -14 -40 -13 -2 2 -12 -8
-21 -21 -15 -21 -18 -21 -26 -7 -13 23 -49 20 -55 -4 -3 -11 -9 -20 -14 -20
-5 0 -9 -6 -9 -14 0 -7 -7 -19 -15 -26 -12 -10 -15 -9 -15 5 0 13 -6 16 -25
11 -14 -4 -25 -2 -25 4 0 5 -4 10 -10 10 -15 0 -12 -16 5 -34 20 -20 19 -26
-4 -26 -11 0 -21 -8 -23 -17 -3 -15 -6 -14 -25 6 -15 16 -27 21 -42 16 -12 -3
-21 -11 -21 -16 0 -6 5 -7 12 -3 7 4 8 3 4 -4 -4 -7 -18 -12 -32 -12 -13 0
-24 -3 -24 -7 0 -19 -66 -11 -93 11 l-29 23 26 7 c31 8 35 26 6 26 -11 0 -19
3 -18 8 4 9 -5 12 -33 12 -19 0 -19 -1 -5 -16 21 -20 20 -23 -3 -17 -10 3 -22
0 -25 -6 -5 -7 2 -11 16 -12 18 0 16 -3 -12 -13 -31 -11 -37 -10 -56 9 -12 11
-20 32 -19 48 1 15 -2 27 -7 27 -4 0 -8 -7 -8 -17 0 -9 -3 -13 -7 -10 -10 11
-33 -13 -33 -34 0 -11 5 -19 12 -19 6 0 2 -10 -10 -23 -12 -13 -22 -28 -22
-35 0 -6 -4 -14 -10 -17 -5 -3 -7 0 -4 8 3 8 1 18 -4 21 -5 3 -13 -4 -16 -17
l-7 -22 -11 25 c-6 15 -12 20 -15 13 -7 -18 -33 -16 -33 2 0 17 -9 19 -30 6
-25 -17 -32 0 -8 21 18 16 19 20 5 15 -15 -6 -17 -3 -11 16 9 29 43 77 55 77
10 0 35 20 90 73 21 20 46 37 54 37 8 0 15 7 15 15 0 8 6 12 14 9 8 -3 17 3
20 14 10 31 40 59 56 54 13 -4 13 -3 2 11 -16 18 -8 37 15 37 10 0 13 6 9 16
-3 8 -2 12 4 9 6 -3 10 1 10 9 0 9 5 16 10 16 6 0 10 6 10 14 0 7 9 16 20 19
12 3 20 14 20 27 0 11 4 19 9 16 5 -4 17 -3 26 0 12 5 13 9 5 14 -9 6 -8 12 4
26 9 11 17 24 18 29 1 6 12 18 25 28 13 10 21 23 18 28 -4 5 -2 9 4 9 15 0 23
-18 11 -25 -5 -3 -10 -14 -10 -23 0 -13 3 -12 15 5 8 12 12 28 9 37 -4 9 -1
16 6 16 7 0 10 8 7 20 -5 19 7 28 16 13 5 -11 0 8 -8 30 -7 17 -6 18 14 6 15
-10 26 -11 38 -3 28 17 26 31 -7 43 -25 8 -30 14 -25 31 4 11 2 20 -4 20 -6 0
-11 4 -11 8 0 5 19 7 43 5 30 -2 38 0 27 7 -8 5 -10 10 -5 10 10 0 18 12 48
77 8 17 26 34 39 38 39 12 77 56 68 80 -4 11 -4 29 1 40 4 11 8 15 8 9 1 -6 8
-11 16 -11 14 0 20 22 16 55 -1 6 2 12 8 12 5 0 11 -6 14 -12 5 -15 39 15 49
44 4 9 25 22 46 28 44 11 67 33 59 53 -4 11 6 14 39 13 27 -1 48 4 53 12 4 7
12 12 17 11 13 -3 64 23 64 33 0 4 7 8 16 8 18 0 74 59 74 78 0 9 10 12 33 10
24 -2 31 -7 29 -20 -3 -22 16 -23 42 -3 18 14 18 15 2 21 -13 5 -16 14 -12 34
6 31 -25 97 -44 92 -9 -2 -10 4 -5 20 4 13 7 31 6 41 0 20 14 23 25 5 4 -6 2
-14 -4 -16 -9 -3 -9 -9 -1 -24 9 -17 13 -18 20 -7 13 19 59 -37 59 -71 0 -23
2 -22 25 12 14 20 25 46 25 57 0 11 5 23 10 26 6 3 10 -1 10 -11 0 -28 42
-104 58 -104 9 0 12 6 8 15 -3 8 -9 23 -13 33 -5 12 3 10 30 -11 71 -54 104
-2 40 65 -14 14 -31 24 -38 21 -14 -5 -38 30 -28 41 11 10 22 7 43 -14 11 -11
20 -16 20 -11 0 4 -12 20 -27 35 -29 29 -34 37 -84 136 -22 44 -34 59 -37 47
-5 -26 -26 -15 -30 16 -2 19 -9 27 -22 27 -10 0 -28 14 -40 30 -21 30 -20 34
12 31 33 -4 27 18 -13 46 -88 61 -86 58 -65 81 10 12 21 42 25 69 4 26 15 63
26 81 19 32 22 33 65 28 25 -3 69 -18 99 -33z m-3028 8 c-8 -5 -10 -14 -6 -22
6 -11 5 -11 -5 -2 -11 10 -11 15 0 28 7 8 15 13 19 10 3 -3 -1 -10 -8 -14z
m39 -21 c0 -16 -4 -30 -10 -30 -11 0 -14 43 -3 53 11 12 13 8 13 -23z m2129
17 c13 -16 5 -27 -21 -27 -15 0 -18 -5 -13 -20 5 -14 2 -20 -9 -20 -9 0 -16
-4 -16 -10 0 -5 -11 -10 -25 -10 -16 0 -25 6 -25 15 0 8 8 15 18 15 19 0 42
18 42 32 0 4 -7 8 -15 8 -8 0 -15 -4 -15 -9 0 -5 -7 -11 -15 -15 -9 -3 -15 0
-15 8 0 7 17 20 38 29 48 19 57 20 71 4z m-2695 -13 c3 -8 2 -12 -4 -9 -6 3
-10 10 -10 16 0 14 7 11 14 -7z m3041 0 c13 -8 32 -14 42 -13 33 6 107 -51 90
-68 -11 -11 -167 73 -167 89 0 12 8 10 35 -8z m-525 -14 c0 -5 -4 -10 -9 -10
-6 0 -13 5 -16 10 -3 6 1 10 9 10 9 0 16 -4 16 -10z m335 -9 c3 -5 1 -12 -4
-15 -12 -8 -41 3 -41 15 0 12 37 12 45 0z m-2362 -62 c-4 -4 -9 6 -10 24 -1
30 -1 31 8 8 5 -14 6 -28 2 -32z m-93 37 c0 -3 -4 -8 -10 -11 -5 -3 -10 -1
-10 4 0 6 5 11 10 11 6 0 10 -2 10 -4z m145 -16 c3 -5 1 -10 -4 -10 -6 0 -11
5 -11 10 0 6 2 10 4 10 3 0 8 -4 11 -10z m1990 0 c3 -5 2 -10 -4 -10 -5 0 -13
5 -16 10 -3 6 -2 10 4 10 5 0 13 -4 16 -10z m255 -5 c0 -10 10 -15 28 -15 25
-1 24 -2 -13 -19 l-40 -19 30 -3 c17 -1 44 -3 60 -4 82 -4 81 -3 59 -20 -25
-19 -35 -19 -28 0 7 17 -11 21 -21 5 -3 -5 -15 -10 -26 -10 -10 0 -19 -6 -19
-14 0 -18 -16 -29 -30 -21 -6 4 -3 16 7 32 l17 26 -42 -5 c-23 -4 -44 -2 -47
3 -9 13 14 49 30 49 8 0 15 7 15 15 0 8 5 15 10 15 6 0 10 -7 10 -15z m-2410
-24 c-5 -11 -10 -29 -10 -40 0 -14 -6 -21 -20 -21 -26 0 -25 24 3 54 27 29 41
33 27 7z m2116 10 c-5 -8 -56 -3 -56 5 0 2 14 4 31 4 16 0 28 -4 25 -9z
m-1966 -21 c0 -11 -2 -20 -4 -20 -2 0 -6 9 -9 20 -3 11 -1 20 4 20 5 0 9 -9 9
-20z m2170 -15 c-7 -9 -15 -13 -18 -10 -3 2 1 11 8 20 7 9 15 13 18 10 3 -2
-1 -11 -8 -20z m220 11 c0 -3 -4 -8 -10 -11 -5 -3 -10 -1 -10 4 0 6 5 11 10
11 6 0 10 -2 10 -4z m-2433 -32 c13 -4 20 -10 17 -15 -3 -5 -1 -9 5 -9 15 0 3
-43 -16 -57 -9 -7 -11 -13 -5 -13 26 0 10 -20 -15 -21 -25 0 -26 -1 -8 -9 19
-7 18 -9 -8 -19 -38 -15 -38 -15 -26 16 7 18 6 30 -1 37 -13 13 -13 26 0 26 6
0 10 -6 10 -14 0 -8 5 -18 11 -22 7 -4 9 0 5 13 -5 15 1 23 21 33 l28 14 -24
4 c-19 3 -21 6 -10 13 11 7 11 9 -3 9 -10 0 -18 5 -18 10 0 11 6 12 37 4z
m-129 -41 c5 -18 -10 -16 -34 2 -18 15 -18 15 5 13 14 -2 26 -9 29 -15z m2777
-17 c6 -7 18 -15 27 -19 9 -3 24 -22 33 -41 10 -20 24 -36 31 -36 8 0 14 -7
14 -15 0 -8 6 -15 14 -15 8 0 16 -7 20 -15 3 -8 12 -15 21 -15 8 0 15 -6 15
-14 0 -18 46 -73 54 -65 3 3 2 27 -3 53 -7 41 -6 47 8 44 13 -3 15 -14 13 -59
-3 -41 0 -59 12 -68 9 -8 16 -24 16 -38 0 -13 12 -40 26 -59 15 -19 21 -34 15
-34 -6 0 -14 7 -17 15 -4 8 -13 15 -21 15 -7 0 -13 6 -11 14 3 15 -66 86 -83
86 -5 0 -9 6 -9 13 -1 19 -66 87 -84 87 -9 0 -16 3 -16 8 0 4 -14 21 -30 39
-17 18 -30 41 -30 52 0 11 -8 22 -18 25 -10 3 -25 19 -35 35 -17 29 -17 29 5
24 13 -3 28 -11 33 -17z m-85 -44 c0 -7 -3 -12 -7 -10 -49 23 -63 33 -63 44 0
18 69 -16 70 -34z m96 -76 c8 -8 14 -21 14 -30 0 -8 10 -22 22 -30 15 -11 17
-16 8 -16 -16 1 -70 44 -70 56 0 4 -8 13 -17 20 -17 12 -16 13 5 14 13 0 30
-6 38 -14z m-1799 -10 c0 -8 -6 -12 -14 -9 -7 3 -10 9 -7 14 8 14 21 11 21 -5z
m789 -9 c4 -4 -5 -7 -19 -7 -15 0 -27 4 -27 10 0 11 35 8 46 -3z m-642 -18
c-3 -5 -10 -7 -15 -3 -5 3 -7 10 -3 15 3 5 10 7 15 3 5 -3 7 -10 3 -15z m-464
-10 c0 -5 -7 -9 -15 -9 -15 0 -20 12 -9 23 8 8 24 -1 24 -14z m-620 -9 c0 -5
-4 -10 -10 -10 -5 0 -10 5 -10 10 0 6 5 10 10 10 6 0 10 -4 10 -10z m1635 0
c3 -5 0 -10 -9 -10 -8 0 -16 -5 -18 -10 -2 -6 -9 -1 -16 10 -11 18 -10 20 12
20 14 0 28 -4 31 -10z m400 0 c3 -5 2 -10 -4 -10 -5 0 -13 5 -16 10 -3 6 -2
10 4 10 5 0 13 -4 16 -10z m265 -6 c0 -2 -19 -4 -42 -3 -35 1 -38 2 -18 8 23
7 60 4 60 -5z m-542 -11 c5 -18 -10 -16 -34 2 -18 15 -18 15 5 13 14 -2 26 -9
29 -15z m332 -5 c0 -13 -23 -5 -28 10 -2 7 2 10 12 6 9 -3 16 -11 16 -16z
m587 -3 c16 -15 22 -25 13 -24 -8 1 -26 -3 -40 -8 -14 -6 -43 -9 -64 -7 -21 3
-44 -1 -52 -7 -11 -9 -14 -7 -14 15 0 22 4 26 33 27 27 2 28 2 7 6 -55 10 -42
23 22 23 57 0 71 -4 95 -25z m-557 -5 c0 -5 -2 -10 -4 -10 -3 0 -8 5 -11 10
-3 6 -1 10 4 10 6 0 11 -4 11 -10z m-2083 -6 c-3 -3 -12 -4 -19 -1 -8 3 -5 6
6 6 11 1 17 -2 13 -5z m1093 -14 c0 -5 -9 -10 -21 -10 -11 0 -17 5 -14 10 3 6
13 10 21 10 8 0 14 -4 14 -10z m-1559 -34 c-6 -7 -9 -16 -6 -20 3 -3 0 -2 -5
2 -13 11 -2 44 12 36 5 -4 5 -11 -1 -18z m1289 20 c0 -3 -4 -8 -10 -11 -5 -3
-10 -1 -10 4 0 6 5 11 10 11 6 0 10 -2 10 -4z m-440 -41 c11 -13 10 -14 -3
-10 -10 4 -17 -1 -21 -13 -6 -19 -34 -37 -43 -28 -4 3 45 66 52 66 1 0 8 -7
15 -15z m335 5 c3 -5 -1 -10 -9 -10 -9 0 -16 5 -16 10 0 6 4 10 9 10 6 0 13
-4 16 -10z m1235 -5 c0 -9 -6 -12 -16 -8 -13 5 -13 7 -2 14 17 11 18 11 18 -6z
m1080 5 c0 -5 -2 -10 -4 -10 -3 0 -8 5 -11 10 -3 6 -1 10 4 10 6 0 11 -4 11
-10z m-2536 -25 c3 -8 1 -15 -4 -15 -6 0 -10 7 -10 15 0 8 2 15 4 15 2 0 6 -7
10 -15z m447 -21 c18 -16 33 -19 24 -5 -11 19 14 21 27 3 7 -10 26 -22 41 -26
15 -3 26 -10 23 -14 -8 -14 8 -27 59 -46 78 -29 160 -47 163 -36 5 12 32 13
32 1 0 -5 -7 -12 -16 -15 -14 -5 -12 -10 11 -28 15 -12 37 -23 49 -25 11 -1
35 -5 51 -7 17 -3 54 -5 84 -5 43 -1 51 -4 42 -14 -31 -38 -340 -14 -363 28
-5 8 -14 13 -19 9 -6 -3 -16 2 -23 11 -6 9 -30 19 -51 22 -22 3 -44 10 -50 15
-7 7 0 9 23 5 17 -4 32 -3 32 2 0 21 -81 75 -113 76 -10 0 -21 5 -25 10 -4 6
-23 23 -42 39 l-35 29 30 -7 c17 -4 37 -14 46 -22z m2189 6 c0 -5 -5 -10 -11
-10 -5 0 -7 5 -4 10 3 6 8 10 11 10 2 0 4 -4 4 -10z m976 -28 c-4 -3 -14 2
-24 12 -16 18 -16 18 6 6 13 -6 21 -14 18 -18z m-5906 -14 c16 -10 24 -10 39
-1 15 10 22 9 31 -2 9 -11 6 -14 -12 -18 -21 -4 -21 -4 3 -6 25 -1 26 -3 23
-53 -3 -53 -31 -150 -45 -156 -10 -4 1 -34 14 -44 12 -8 16 -58 5 -58 -4 0 -8
-9 -8 -21 0 -12 -4 -17 -11 -13 -8 4 -9 0 -4 -15 5 -17 2 -21 -14 -21 -12 0
-21 -5 -21 -11 0 -5 -4 -8 -9 -5 -5 3 -12 -1 -15 -10 -3 -8 -10 -13 -15 -10
-4 3 -16 -3 -26 -14 -10 -11 -15 -20 -12 -20 3 0 -5 -11 -18 -25 -25 -24 -32
-45 -17 -45 4 0 13 5 19 11 7 7 17 -3 33 -35 18 -38 20 -55 15 -101 -4 -30
-11 -55 -15 -55 -4 0 -11 -11 -14 -24 -3 -14 -15 -28 -26 -31 -11 -3 -20 -10
-20 -15 0 -14 -64 -18 -91 -4 -66 33 -77 88 -40 198 26 78 26 82 9 99 -10 9
-18 28 -18 40 0 13 -3 27 -6 30 -11 11 -14 77 -4 77 6 0 10 7 10 15 0 8 9 24
20 35 11 11 20 25 20 31 0 5 5 7 10 4 6 -3 10 -1 10 6 0 7 17 27 37 45 31 28
34 34 20 40 -9 3 -15 10 -12 15 3 4 13 5 22 2 13 -5 15 -2 9 21 -5 20 0 38 15
64 30 50 60 83 70 76 5 -3 9 0 9 5 0 14 6 14 30 -1z m2405 -6 c-3 -3 -11 0
-18 7 -9 10 -8 11 6 5 10 -3 15 -9 12 -12z m121 -1 c-3 -4 3 -16 14 -26 34
-31 26 -47 -22 -40 -48 7 -96 39 -76 51 6 4 14 2 16 -4 5 -17 22 -15 22 2 0
14 14 24 38 25 7 1 11 -3 8 -8z m1661 -23 c-3 -8 -6 -5 -6 6 -1 11 2 17 5 13
3 -3 4 -12 1 -19z m-1427 -23 c7 -13 20 -26 29 -28 9 -3 5 -5 -9 -6 -34 -1
-47 9 -55 42 -6 22 -4 26 7 22 9 -4 21 -17 28 -30z m2083 -50 c-11 -31 -33
-16 -33 23 l1 37 19 -23 c10 -13 16 -30 13 -37z m-566 39 c-3 -3 -12 -4 -19
-1 -8 3 -5 6 6 6 11 1 17 -2 13 -5z m-3224 -31 c-15 -6 -17 -33 -3 -33 17 0
11 -25 -10 -43 -29 -24 -35 -21 -16 8 20 30 20 35 1 35 -8 0 -15 4 -15 10 0
10 30 30 45 29 6 0 4 -3 -2 -6z m1283 -14 c19 -22 19 -22 -3 -8 -13 8 -23 17
-23 21 0 12 6 9 26 -13z m294 11 c0 -5 -4 -10 -9 -10 -6 0 -13 5 -16 10 -3 6
1 10 9 10 9 0 16 -4 16 -10z m860 -25 c0 -23 -16 -17 -28 10 -11 24 -10 25 8
15 11 -6 20 -17 20 -25z m-1105 5 c3 -5 2 -10 -4 -10 -5 0 -13 5 -16 10 -3 6
-2 10 4 10 5 0 13 -4 16 -10z m299 -20 c5 -5 6 -16 3 -24 -5 -13 -11 -13 -39
-4 -27 10 -29 13 -13 17 16 3 14 6 -15 18 l-35 13 45 -5 c25 -3 49 -10 54 -15z
m-224 1 c0 -13 -28 -22 -35 -11 -3 4 1 11 7 13 20 8 28 8 28 -2z m460 -1 c0
-5 -4 -10 -10 -10 -5 0 -10 5 -10 10 0 6 5 10 10 10 6 0 10 -4 10 -10z m-1006
-15 c3 -8 1 -15 -4 -15 -6 0 -10 7 -10 15 0 8 2 15 4 15 2 0 6 -7 10 -15z
m1566 -15 c-56 -30 -82 -38 -64 -20 15 15 87 49 104 50 8 0 -10 -13 -40 -30z
m-970 10 c0 -5 -4 -10 -10 -10 -5 0 -10 5 -10 10 0 6 5 10 10 10 6 0 10 -4 10
-10z m373 -4 c22 -17 22 -26 -2 -26 -10 0 -21 9 -24 20 -6 23 1 25 26 6z
m1155 -15 c3 -8 -1 -12 -9 -9 -7 2 -15 10 -17 17 -3 8 1 12 9 9 7 -2 15 -10
17 -17z m1259 -3 c-2 -7 9 -30 26 -51 16 -21 28 -40 25 -42 -11 -11 -48 10
-57 33 -22 59 -23 72 -6 72 9 0 15 -6 12 -12z m-4288 -43 c0 -5 -4 -3 -9 5 -5
8 -9 22 -9 30 0 16 17 -16 18 -35z m1737 18 c-10 -10 -19 5 -10 18 6 11 8 11
12 0 2 -7 1 -15 -2 -18z m219 6 c11 -17 2 -18 -25 -4 -24 14 -24 14 -3 15 12
0 25 -5 28 -11z m967 -25 c51 -4 50 -4 36 -17 -29 -29 -102 -2 -75 28 9 9 14
10 19 1 4 -6 13 -11 20 -12z m-1968 3 c3 4 6 -4 6 -17 0 -23 0 -23 -16 -4 -11
13 -17 15 -20 7 -9 -20 -24 -15 -24 7 0 16 4 18 24 10 13 -5 27 -6 30 -3z
m846 3 c0 -5 -4 -10 -9 -10 -6 0 -13 5 -16 10 -3 6 1 10 9 10 9 0 16 -4 16
-10z m276 -1 c3 -5 22 -9 43 -8 39 3 68 -8 54 -21 -9 -8 -177 5 -193 15 -6 3
-10 10 -10 15 0 12 98 11 106 -1z m-2096 -9 c0 -5 -4 -10 -10 -10 -5 0 -10 5
-10 10 0 6 5 10 10 10 6 0 10 -4 10 -10z m408 -45 c-3 -3 -9 2 -12 12 -6 14
-5 15 5 6 7 -7 10 -15 7 -18z m2152 5 c-20 -13 -53 -13 -45 0 3 6 18 10 33 10
21 0 24 -2 12 -10z m-1065 -16 c19 -15 19 -15 -9 -12 -16 2 -31 9 -34 16 -5
17 19 15 43 -4z m-1105 2 c0 -3 -4 -8 -10 -11 -5 -3 -10 -1 -10 4 0 6 5 11 10
11 6 0 10 -2 10 -4z m2470 -17 c0 -5 9 -4 20 3 17 11 22 10 29 -1 6 -9 11 -10
15 -2 4 6 15 11 26 11 16 0 17 -3 7 -25 -7 -14 -18 -23 -25 -20 -8 3 -33 5
-56 5 -37 0 -42 3 -44 25 -1 18 2 23 13 19 8 -4 15 -10 15 -15z m-2870 -20 c0
-5 -4 -9 -10 -9 -5 0 -10 7 -10 16 0 8 5 12 10 9 6 -3 10 -10 10 -16z m2423
-6 c-7 -2 -19 -2 -25 0 -7 3 -2 5 12 5 14 0 19 -2 13 -5z m1797 -13 c0 -5 -4
-10 -10 -10 -5 0 -10 5 -10 10 0 6 5 10 10 10 6 0 10 -4 10 -10z m-4230 -30
c0 -5 -4 -10 -10 -10 -5 0 -10 5 -10 10 0 6 5 10 10 10 6 0 10 -4 10 -10z
m4245 -50 c3 -11 14 -22 24 -25 13 -4 20 -19 25 -52 3 -25 3 -49 0 -52 -6 -7
-74 69 -75 84 0 5 -2 27 -4 48 -4 33 -2 37 10 27 8 -6 17 -20 20 -30z m-260
20 c3 -5 1 -10 -4 -10 -6 0 -11 5 -11 10 0 6 2 10 4 10 3 0 8 -4 11 -10z
m-4005 -4 c0 -2 -7 -7 -16 -10 -8 -3 -12 -2 -9 4 6 10 25 14 25 6z m2670 -10
c0 -2 -7 -6 -15 -10 -8 -3 -15 -1 -15 4 0 6 7 10 15 10 8 0 15 -2 15 -4z m328
-36 c10 -16 10 -20 -2 -20 -8 0 -21 -3 -30 -6 -11 -4 -16 -1 -16 10 0 9 -6 16
-12 17 -14 0 20 17 37 18 6 1 16 -8 23 -19z m314 -5 c5 -25 -6 -28 -29 -10 -9
8 -8 13 5 23 20 15 19 16 24 -13z m-3335 -37 c-3 -8 -6 -5 -6 6 -1 11 2 17 5
13 3 -3 4 -12 1 -19z m3285 -4 c-4 -20 -32 -45 -44 -38 -3 2 0 18 9 35 16 32
40 35 35 3z m937 -61 c9 -7 12 -12 6 -12 -28 0 -62 50 -48 72 4 6 11 -1 16
-18 6 -17 17 -35 26 -42z m11 47 c0 -5 -4 -10 -10 -10 -5 0 -10 5 -10 10 0 6
5 10 10 10 6 0 10 -4 10 -10z m-4237 -13 c3 -8 -1 -14 -9 -14 -15 0 -18 9 -7
20 9 9 10 9 16 -6z m957 -27 c0 -11 6 -20 13 -20 9 0 11 -23 9 -88 -3 -75 0
-95 17 -125 l20 -37 -29 -66 c-20 -43 -34 -64 -42 -60 -7 3 -21 9 -30 12 -10
4 -18 9 -18 13 0 3 -14 22 -30 41 -33 38 -37 50 -17 50 8 0 9 3 1 8 -14 9 -25
92 -12 92 6 0 7 15 4 38 -4 24 -1 47 9 66 8 15 15 33 15 39 0 18 44 55 68 56
16 1 22 -5 22 -19z m-980 -10 c0 -5 -5 -10 -11 -10 -5 0 -7 5 -4 10 3 6 8 10
11 10 2 0 4 -4 4 -10z m1820 0 c0 -5 6 -7 14 -4 8 3 17 1 21 -5 3 -7 -3 -11
-17 -12 -50 -3 -82 6 -73 21 8 13 55 13 55 0z m2312 -21 c-18 -12 -35 -19 -38
-16 -3 3 7 12 23 21 42 23 53 19 15 -5z m282 -15 c10 -38 0 -41 -12 -5 -6 17
-7 31 -3 31 5 0 12 -12 15 -26z m-4424 12 c0 -3 -4 -8 -10 -11 -5 -3 -10 -1
-10 4 0 6 5 11 10 11 6 0 10 -2 10 -4z m1550 -12 c0 -2 -7 -4 -15 -4 -8 0 -15
4 -15 10 0 5 7 7 15 4 8 -4 15 -8 15 -10z m2730 -17 c0 -5 -4 -5 -10 -2 -5 3
-10 14 -10 23 0 15 2 15 10 2 5 -8 10 -19 10 -23z m50 -1 c0 -8 3 -21 6 -30 8
-20 -19 -21 -36 -1 -9 11 -9 17 2 29 17 19 28 20 28 2z m-240 -26 c0 -5 -5
-10 -11 -10 -5 0 -7 5 -4 10 3 6 8 10 11 10 2 0 4 -4 4 -10z m-4123 -6 c-3 -3
-12 -4 -19 -1 -8 3 -5 6 6 6 11 1 17 -2 13 -5z m1785 -14 c37 0 118 -22 118
-32 0 -11 -1 -11 -112 9 -54 9 -98 21 -98 26 0 5 12 6 26 3 19 -5 24 -4 18 6
-5 10 -4 11 7 1 7 -7 26 -13 41 -13z m118 6 c0 -11 -19 -15 -25 -6 -3 5 1 10
9 10 9 0 16 -2 16 -4z m53 -2 c9 -9 -11 -44 -25 -44 -7 0 -7 4 1 13 8 10 7 17
-1 25 -9 9 -8 12 3 12 9 0 19 -3 22 -6z m1100 -10 c-7 -3 -9 -12 -6 -20 3 -8
1 -14 -5 -14 -12 0 -23 26 -15 34 4 3 13 6 22 5 10 0 11 -3 4 -5z m97 -124 c0
-5 -5 -10 -11 -10 -5 0 -7 5 -4 10 3 6 8 10 11 10 2 0 4 -4 4 -10z m-80 -160
c0 -11 -5 -20 -11 -20 -5 0 -7 -4 -4 -10 3 -5 0 -7 -8 -4 -12 4 -12 10 -3 30
13 29 26 31 26 4z m-3857 -109 l32 1 -30 8 c-28 7 -28 8 -5 9 14 0 30 -3 35
-7 14 -10 15 -42 1 -42 -6 0 -5 -4 3 -9 18 -12 7 -58 -17 -64 -13 -4 -12 -5 5
-6 21 -1 44 -21 25 -21 -13 0 -22 -39 -11 -45 4 -3 6 -12 2 -20 -3 -10 -1 -13
9 -10 11 5 14 -3 14 -34 -1 -25 4 -43 12 -46 7 -3 11 -9 8 -14 -4 -5 -8 -33
-11 -63 -3 -29 -6 -65 -8 -80 -3 -16 1 -28 7 -28 6 0 3 -7 -6 -14 -19 -14 -25
-32 -8 -21 12 7 12 3 4 -20 -6 -13 -9 -14 -16 -3 -7 9 -8 7 -5 -9 4 -18 1 -23
-15 -23 -12 0 -16 4 -12 11 4 7 1 10 -6 7 -7 -2 -14 -12 -16 -22 -4 -26 -24
-46 -46 -46 -12 0 -18 -5 -15 -13 3 -7 -1 -23 -7 -36 -11 -19 -9 -35 8 -94 11
-40 25 -75 29 -78 5 -3 26 -5 48 -4 21 1 39 -2 39 -6 0 -5 5 -9 11 -9 6 0 17
-7 25 -15 9 -8 12 -15 7 -15 -5 0 -9 -16 -9 -35 0 -19 2 -35 6 -35 7 0 5 -103
-2 -115 -6 -12 -1 -82 7 -95 3 -6 1 -10 -5 -10 -6 0 -8 -5 -5 -11 12 -19 14
-159 3 -159 -7 0 -7 -4 -1 -12 13 -16 15 -31 19 -138 2 -47 7 -150 11 -230 12
-245 9 -409 -10 -460 -14 -39 -14 -46 -2 -60 20 -23 23 -160 3 -160 -4 0 -8
-7 -8 -16 0 -9 -9 -18 -20 -21 -11 -3 -20 -9 -20 -14 0 -5 -7 -5 -17 -2 -11 4
-14 3 -9 -5 5 -8 0 -12 -13 -12 -10 0 -21 4 -23 9 -4 12 -37 15 -65 6 -18 -6
-23 -15 -23 -39 0 -17 4 -36 8 -42 8 -12 43 -28 55 -25 4 1 15 -6 24 -14 12
-12 18 -13 29 -4 11 9 14 7 14 -9 0 -11 7 -27 15 -36 19 -18 19 -30 1 -23 -17
7 -27 -14 -21 -42 3 -16 -1 -20 -18 -18 -16 1 -22 -3 -20 -16 1 -14 -4 -17
-18 -14 -10 3 -19 1 -19 -4 0 -5 10 -9 23 -10 l22 0 -23 -10 c-13 -5 -28 -7
-33 -3 -5 3 -10 -3 -10 -13 -1 -16 -2 -16 -6 -1 -2 10 -10 15 -19 11 -9 -3
-14 1 -14 12 0 9 -4 14 -10 10 -5 -3 -40 2 -79 11 -54 13 -71 22 -80 40 -6 13
-15 24 -20 24 -5 0 -9 42 -9 93 -1 97 -4 121 -16 150 -5 9 -5 32 -2 51 6 34
45 119 46 101 0 -5 7 0 15 12 16 23 16 53 -2 75 -18 24 -33 80 -33 128 0 26
-7 67 -15 90 -20 57 -28 172 -26 360 3 239 34 381 85 394 33 8 116 91 116 116
0 10 -9 24 -21 30 -11 6 -19 19 -17 29 7 39 -52 70 -66 35 -4 -11 -10 -13 -19
-7 -6 6 -24 13 -39 17 -20 5 -28 12 -27 29 0 12 -3 49 -7 82 -4 33 -7 78 -7
100 0 22 1 121 2 220 0 99 1 215 1 257 -1 43 4 87 10 98 15 28 62 50 123 57
54 7 80 26 71 54 -10 33 20 75 49 70 5 -1 6 7 2 18 -5 16 -2 18 15 14 15 -4
20 0 21 13 1 17 2 17 6 2 3 -13 14 -18 36 -17z m1807 -106 c0 -5 14 -37 30
-70 33 -65 43 -128 15 -91 -8 11 -15 27 -15 37 0 10 -11 19 -29 22 -27 6 -44
33 -46 76 0 8 -6 16 -13 19 -19 6 -14 22 8 22 12 0 20 7 20 17 0 15 2 14 15
-3 8 -10 15 -23 15 -29z m-76 -26 c3 1 6 -1 6 -4 0 -3 0 -10 0 -17 0 -6 -8 -3
-20 7 -11 10 -17 22 -14 27 4 6 9 5 14 -2 4 -6 10 -11 14 -11z m71 -189 c-3
-5 0 -10 8 -10 14 0 40 -58 52 -118 4 -19 26 -52 52 -80 49 -50 66 -83 77
-146 6 -33 5 -38 -8 -33 -20 8 -21 -14 -1 -79 8 -27 12 -57 9 -67 -3 -9 0 -33
6 -52 9 -28 9 -38 -3 -49 -10 -10 -13 -31 -10 -71 4 -60 -10 -150 -32 -191
-20 -38 -48 -61 -91 -73 -31 -9 -40 -8 -47 4 -4 8 -16 15 -27 15 -40 0 -91 89
-95 165 0 11 -4 26 -8 33 -5 6 -6 16 -2 21 3 5 1 12 -4 16 -6 3 -10 18 -9 33
0 15 -2 37 -5 49 -4 16 2 27 29 45 18 13 34 27 34 31 0 5 -3 6 -7 4 -5 -3 -9
7 -10 21 -3 48 -9 72 -20 83 -7 7 -8 22 -3 40 6 18 5 29 -1 29 -6 0 -4 7 5 15
8 8 19 15 24 15 17 0 20 38 6 66 -8 14 -14 31 -14 38 0 6 -7 24 -15 39 -8 16
-17 48 -20 72 -6 37 -3 46 20 69 14 14 32 26 40 26 8 0 15 5 15 10 0 18 24 39
43 40 10 0 15 -4 12 -10z m2452 -76 c-3 -3 -12 -4 -19 -1 -8 3 -5 6 6 6 11 1
17 -2 13 -5z m1498 -150 c23 -15 36 -64 17 -64 -4 0 -12 -10 -17 -22 -6 -14
-24 -26 -47 -31 -28 -7 -38 -14 -38 -28 0 -24 -27 -25 -34 -1 -4 10 -2 39 3
65 4 26 6 47 3 47 -3 0 5 11 18 25 27 29 60 32 95 9z m60 -94 c3 -6 -1 -7 -9
-4 -18 7 -21 14 -7 14 6 0 13 -4 16 -10z m-285 -155 c0 -8 -4 -15 -10 -15 -5
0 -7 7 -4 15 4 8 8 15 10 15 2 0 4 -7 4 -15z m58 -71 c8 -6 12 -16 8 -22 -3
-6 -2 -21 3 -34 12 -33 -8 -111 -27 -103 -7 2 -10 1 -7 -4 9 -15 -15 -25 -28
-12 -9 9 -9 14 -1 19 15 10 36 153 24 168 -6 6 -7 14 -3 18 4 4 10 1 12 -6 2
-7 11 -18 19 -24z m156 -99 c9 -13 13 -32 9 -41 -4 -12 -3 -15 5 -10 7 4 12 2
12 -3 0 -23 -33 -6 -43 22 -3 9 -13 17 -22 17 -15 0 -21 30 -9 43 10 10 32 -3
48 -28z m-211 -30 c-5 -13 -23 -22 -23 -11 0 15 14 35 21 31 4 -3 6 -12 2 -20z
m263 -102 c-3 -7 1 -13 9 -13 16 0 20 -12 8 -23 -8 -8 -43 42 -43 62 0 11 3
11 15 1 9 -7 14 -19 11 -27z m-196 -78 c0 -14 -4 -25 -8 -25 -4 0 -9 11 -10
25 -1 14 3 25 8 25 6 0 10 -11 10 -25z m266 -15 c11 0 13 -4 5 -17 -7 -13 -5
-23 6 -36 24 -25 30 -119 9 -136 -10 -9 -16 -28 -15 -55 1 -40 1 -40 11 -13 5
15 15 26 22 24 13 -4 25 -162 14 -194 -4 -12 -10 -43 -13 -68 -3 -26 -12 -53
-20 -62 -8 -8 -15 -20 -15 -27 0 -16 -47 -39 -54 -27 -13 20 -19 178 -7 185 6
4 11 26 11 48 l0 41 -21 -19 c-16 -14 -23 -15 -26 -6 -3 6 -11 12 -18 12 -18
0 -26 61 -10 80 7 8 17 29 23 45 6 17 11 24 11 17 1 -7 6 -10 11 -7 6 4 7 12
3 18 -11 18 -11 160 0 175 6 8 5 18 -4 30 -13 16 -12 16 4 2 17 -12 20 -12 29
4 10 17 11 17 20 2 5 -9 16 -16 24 -16z m-3906 -190 c0 -25 -22 -84 -34 -92
-5 -4 -18 -2 -29 3 -10 6 -23 8 -30 5 -7 -2 -4 -5 6 -5 9 -1 17 -5 17 -11 0
-15 -26 -12 -40 4 -6 8 -19 12 -28 9 -15 -4 -15 -3 -2 6 13 9 13 11 1 11 -12
0 -12 3 -3 12 10 10 15 10 22 -2 7 -12 12 -11 29 4 12 11 22 29 22 40 1 17 2
18 6 4 7 -26 25 -22 22 5 -1 12 2 31 6 41 8 18 9 18 22 0 7 -10 13 -25 13 -34z
m-840 20 c0 -5 -4 -10 -10 -10 -5 0 -10 5 -10 10 0 6 5 10 10 10 6 0 10 -4 10
-10z m-33 -52 c-3 -8 -6 -5 -6 6 -1 11 2 17 5 13 3 -3 4 -12 1 -19z m2198
-378 c-3 -5 -1 -10 4 -10 19 0 12 -16 -8 -17 -11 -1 -21 6 -24 18 -4 14 0 19
15 19 10 0 16 -4 13 -10z m-35 -26 c0 -8 -4 -14 -10 -14 -5 0 -10 2 -10 4 0 2
-3 12 -6 20 -5 12 -2 15 10 10 9 -3 16 -12 16 -20z m2221 9 c13 -16 12 -17 -3
-4 -10 7 -18 15 -18 17 0 8 8 3 21 -13z m-2204 -53 c-1 -16 -5 -30 -8 -30 -4
0 -5 -14 -4 -30 2 -20 -2 -29 -9 -27 -6 3 -10 10 -8 17 2 10 -3 9 -20 -2 -13
-8 -33 -21 -45 -29 -21 -13 -21 -14 -5 -33 17 -18 16 -18 -16 -2 -23 12 -32
22 -28 33 5 11 2 14 -11 9 -14 -6 -15 -5 -6 5 17 17 43 20 43 6 1 -7 9 -2 19
11 11 12 24 22 30 22 18 0 50 42 44 58 -4 10 -2 13 5 8 7 -4 12 -2 12 3 0 6 2
11 5 11 2 0 3 -13 2 -30z m2243 20 c0 -5 -2 -10 -4 -10 -3 0 -8 5 -11 10 -3 6
-1 10 4 10 6 0 11 -4 11 -10z m-2304 -20 c16 0 19 -26 4 -35 -5 -3 -10 1 -10
10 0 8 -7 18 -15 21 -8 4 -12 11 -8 17 5 8 8 7 11 -1 2 -7 10 -12 18 -12z
m1404 16 c0 -11 -19 -15 -25 -6 -3 5 1 10 9 10 9 0 16 -2 16 -4z m-1370 -111
c10 -13 9 -15 -8 -15 -22 0 -36 13 -25 24 10 10 20 7 33 -9z m2160 -5 c0 -5
-2 -10 -4 -10 -3 0 -8 5 -11 10 -3 6 -1 10 4 10 6 0 11 -4 11 -10z m-2205 -20
c3 -5 2 -10 -4 -10 -5 0 -13 5 -16 10 -3 6 -2 10 4 10 5 0 13 -4 16 -10z
m2109 -45 c-6 -16 -24 -21 -24 -7 0 11 11 22 21 22 5 0 6 -7 3 -15z m-314 -25
c0 -5 -6 -10 -14 -10 -8 0 -18 5 -21 10 -3 6 3 10 14 10 12 0 21 -4 21 -10z
m-190 -20 c0 -5 -7 -7 -15 -4 -8 4 -15 8 -15 10 0 2 7 4 15 4 8 0 15 -4 15
-10z m190 -76 c0 -2 -12 -4 -26 -4 -14 0 -23 4 -20 9 6 8 46 4 46 -5z m68 -6
c19 -19 14 -28 -12 -28 -29 0 -44 19 -25 31 18 12 23 11 37 -3z m-3 -58 c3 -5
18 -10 33 -11 25 -1 25 -1 -6 -10 -29 -9 -33 -13 -28 -35 4 -13 2 -24 -4 -24
-5 0 -11 7 -11 15 -1 8 -2 21 -3 28 -1 6 3 15 9 19 6 5 6 8 -2 8 -7 0 -13 5
-13 10 0 6 4 10 9 10 6 0 13 -4 16 -10z m105 -46 c0 -2 -7 -4 -15 -4 -8 0 -15
4 -15 10 0 5 7 7 15 4 8 -4 15 -8 15 -10z m-135 -14 c3 -5 1 -10 -4 -10 -6 0
-11 5 -11 10 0 6 2 10 4 10 3 0 8 -4 11 -10z m75 -20 c0 -5 -4 -10 -9 -10 -6
0 -13 5 -16 10 -3 6 1 10 9 10 9 0 16 -4 16 -10z m-1020 -20 c0 -5 -6 -10 -14
-10 -8 0 -18 5 -21 10 -3 6 3 10 14 10 12 0 21 -4 21 -10z m-960 -10 c0 -5 -4
-10 -10 -10 -5 0 -10 5 -10 10 0 6 5 10 10 10 6 0 10 -4 10 -10z m140 -6 c0
-3 -9 -17 -19 -31 -11 -13 -17 -31 -14 -38 9 -25 -31 -68 -66 -71 l-31 -4 15
30 c8 16 15 38 15 48 0 21 -26 37 -34 21 -2 -5 -3 -4 -2 2 1 7 13 19 26 28 14
10 21 11 16 4 -10 -17 4 -16 28 2 19 15 66 21 66 9z m1365 -24 c3 -5 4 -10 1
-10 -2 0 -11 -3 -19 -6 -8 -3 -17 2 -20 10 -7 18 27 23 38 6z m55 -32 c0 -17
-3 -20 -9 -9 -5 8 -16 11 -25 8 -8 -3 -18 -2 -21 3 -6 9 11 18 38 19 11 1 17
-6 17 -21z m390 -8 c13 -8 13 -10 -2 -10 -9 0 -20 5 -23 10 -8 13 5 13 25 0z
m-520 -20 c0 -5 -5 -10 -11 -10 -5 0 -7 5 -4 10 3 6 8 10 11 10 2 0 4 -4 4
-10z m500 -6 c0 -2 -7 -4 -15 -4 -8 0 -15 4 -15 10 0 5 7 7 15 4 8 -4 15 -8
15 -10z m20 -25 c0 -15 -18 -19 -23 -6 -3 8 1 14 9 14 8 0 14 -4 14 -8z m-60
-9 c0 -5 -4 -10 -10 -10 -5 0 -10 5 -10 10 0 6 5 10 10 10 6 0 10 -4 10 -10z
m-715 -20 c-3 -5 -10 -10 -16 -10 -5 0 -9 5 -9 10 0 6 7 10 16 10 8 0 12 -4 9
-10z m650 -10 c-3 -5 -14 -10 -23 -9 -14 0 -13 2 3 9 27 11 27 11 20 0z m-118
-26 c-3 -3 -12 -4 -19 -1 -8 3 -5 6 6 6 11 1 17 -2 13 -5z m-1637 -34 c0 -5
-5 -10 -11 -10 -5 0 -7 5 -4 10 3 6 8 10 11 10 2 0 4 -4 4 -10z m-3120 -60 c0
-5 -4 -10 -10 -10 -5 0 -10 5 -10 10 0 6 5 10 10 10 6 0 10 -4 10 -10z m4744
-161 c14 -7 23 -16 20 -20 -6 -10 -54 10 -54 23 0 11 4 10 34 -3z m-309 -29
c3 -5 1 -10 -5 -10 -6 0 -2 -12 9 -26 22 -28 28 -54 12 -54 -6 0 -24 -13 -41
-29 -23 -20 -28 -30 -18 -34 7 -3 2 -6 -12 -7 l-25 -1 28 -15 c15 -8 27 -19
27 -24 0 -13 -17 -13 -25 0 -3 6 -12 10 -20 10 -11 0 -11 -8 -4 -37 6 -21 13
-45 16 -53 3 -8 5 -21 4 -28 -4 -26 44 -9 49 17 7 35 26 26 22 -10 -2 -23 2
-29 18 -29 25 0 26 -17 3 -23 -10 -3 -4 -5 13 -6 22 -1 33 -7 36 -19 7 -25
-28 -48 -47 -32 -17 14 -51 5 -59 -16 -3 -8 1 -17 9 -20 8 -4 15 -10 15 -15 0
-18 -31 -9 -56 16 -14 14 -33 25 -42 25 -24 0 -46 -16 -38 -28 4 -6 -2 -8 -14
-5 -11 3 -20 0 -20 -6 0 -6 10 -11 23 -11 12 0 29 -4 37 -10 9 -6 20 -5 30 3
12 9 13 9 3 -2 -7 -8 -8 -20 -3 -30 4 -9 13 -28 20 -43 7 -15 16 -25 21 -23 4
3 5 -4 2 -14 -3 -10 0 -28 6 -39 11 -21 5 -52 -10 -52 -5 0 -8 3 -7 8 5 18
-14 82 -22 77 -6 -4 -9 4 -7 17 3 33 -30 37 -39 4 -6 -26 -34 -57 -34 -38 0 6
-9 13 -19 17 -13 4 -17 12 -14 25 3 10 -3 32 -13 48 -15 27 -20 29 -46 20 -41
-14 -45 -5 -18 47 26 50 27 45 -32 103 -37 35 -16 31 32 -7 34 -27 56 -38 70
-34 27 7 17 17 -17 18 -15 0 -28 6 -31 13 -4 14 19 12 30 -2 4 -6 13 -4 23 4
10 9 19 10 26 3 5 -5 23 -8 39 -5 35 5 42 37 11 45 -15 3 -18 1 -14 -12 3 -12
1 -11 -7 3 -10 14 -10 20 0 26 9 6 9 9 0 15 -9 6 -9 9 0 15 10 6 8 14 -6 34
-24 33 -36 33 -24 1 5 -14 6 -25 1 -25 -10 0 -38 31 -33 37 1 2 -1 11 -6 19
-6 11 -26 17 -61 19 -30 2 -60 10 -70 19 -10 9 -21 16 -26 16 -11 0 -45 31
-45 40 0 4 11 5 25 2 15 -2 25 0 25 7 0 6 -8 11 -17 12 -18 1 -18 1 27 15 13
5 13 6 0 15 -10 6 1 8 38 6 29 -3 52 0 52 5 0 6 7 8 14 5 10 -4 13 -1 9 9 -8
21 9 17 41 -11 17 -14 36 -23 43 -21 8 3 13 -2 13 -14 0 -10 -8 -21 -17 -23
-11 -3 -7 -5 10 -6 15 0 30 -2 34 -3 11 -5 11 28 -1 43 -6 9 -23 24 -38 33
-16 10 -28 23 -28 28 0 5 7 2 16 -6 19 -20 19 -20 40 1 16 16 18 16 33 -3 26
-33 48 -36 54 -8 2 13 0 24 -4 24 -5 0 -9 -5 -9 -11 0 -5 -5 -7 -11 -3 -8 4
-7 9 2 15 19 12 36 11 44 -1z m235 -101 c23 -12 39 -24 36 -26 -5 -5 -96 36
-96 43 0 9 22 3 60 -17z m-116 -20 c5 -5 15 -4 21 1 14 11 43 -35 30 -47 -4
-5 -10 -2 -12 5 -3 6 -11 12 -19 12 -9 0 -11 -6 -7 -17 6 -16 5 -17 -11 -3
-17 13 -18 12 -14 -5 2 -12 10 -19 21 -17 9 2 17 -2 17 -8 0 -13 -11 -13 -45
0 -17 7 -24 7 -20 0 3 -6 -3 -10 -14 -10 -11 0 -23 5 -26 10 -3 6 -1 10 5 10
6 0 8 5 5 10 -3 6 3 10 14 10 25 0 36 16 16 24 -8 3 -15 15 -15 26 0 17 4 20
23 15 12 -4 26 -11 31 -16z m-94 -50 c0 -11 -4 -18 -9 -14 -6 3 -9 14 -8 25 2
24 17 15 17 -11z m-284 -39 c15 -6 24 -13 22 -16 -8 -8 -58 7 -58 17 0 11 3
11 36 -1z m472 -49 c-15 -5 -58 21 -58 35 0 9 11 6 34 -9 18 -12 29 -24 24
-26z m-103 29 c3 -6 -1 -7 -9 -4 -18 7 -21 14 -7 14 6 0 13 -4 16 -10z m-325
-20 c0 -5 -5 -10 -11 -10 -5 0 -7 5 -4 10 3 6 8 10 11 10 2 0 4 -4 4 -10z
m320 -20 c0 -5 -2 -10 -4 -10 -3 0 -8 5 -11 10 -3 6 -1 10 4 10 6 0 11 -4 11
-10z m-252 -28 c6 -20 -22 -13 -35 8 -12 17 -11 18 9 11 12 -4 24 -13 26 -19z
m372 -84 c0 -16 -30 -8 -42 12 -7 11 -17 20 -21 20 -5 0 -15 7 -23 15 -9 8
-24 15 -35 15 -10 0 -19 5 -19 10 0 6 7 10 15 10 8 0 15 5 15 11 0 5 25 -11
55 -37 30 -26 55 -51 55 -56z m-575 72 c3 -5 1 -10 -4 -10 -6 0 -11 5 -11 10
0 6 2 10 4 10 3 0 8 -4 11 -10z m170 -20 c3 -5 2 -10 -4 -10 -5 0 -13 5 -16
10 -3 6 -2 10 4 10 5 0 13 -4 16 -10z m-262 -38 c-2 -7 2 -12 9 -12 6 0 9 -3
5 -6 -6 -6 16 -34 27 -34 3 0 6 7 6 15 0 8 4 15 9 15 10 0 21 -35 21 -69 0
-19 3 -21 15 -11 9 8 12 22 8 42 -5 24 -3 30 8 26 8 -2 15 -14 17 -25 2 -12
13 -24 25 -28 17 -6 19 -8 6 -12 -14 -3 -39 -42 -39 -59 0 -3 10 -4 23 -3 12
1 30 -1 40 -6 9 -4 24 -5 32 -1 18 7 20 -15 3 -32 -7 -7 -20 -12 -29 -12 -17
0 -34 -52 -23 -74 3 -6 -6 3 -20 19 -14 17 -26 24 -26 18 0 -20 -13 -15 -49
17 l-33 31 4 -36 c3 -24 0 -35 -9 -35 -7 0 -13 -9 -13 -19 0 -11 -4 -22 -10
-26 -6 -3 -5 -15 2 -30 6 -14 8 -28 4 -32 -9 -10 -27 19 -21 34 2 7 0 15 -5
18 -15 9 -12 79 5 111 14 28 14 29 -11 36 -14 4 -34 14 -43 22 -22 20 -34 10
-20 -16 6 -11 8 -26 5 -34 -3 -8 -1 -14 4 -14 6 0 10 -12 10 -26 0 -14 4 -22
10 -19 5 3 2 -7 -8 -24 -16 -29 -16 -30 6 -54 17 -18 20 -27 11 -32 -7 -5 -18
1 -28 14 -18 23 -31 19 -31 -9 0 -26 -34 -52 -48 -38 -8 8 -9 15 -1 25 7 8 9
30 5 58 -4 25 -6 47 -4 49 4 5 -47 46 -57 46 -3 0 -14 -8 -23 -17 -16 -15 -17
-15 -20 0 -2 9 2 26 8 38 8 14 9 24 2 31 -12 12 -46 2 -38 -11 10 -16 -18 -57
-36 -53 -32 6 -15 54 37 107 25 25 35 43 32 56 -3 10 -1 17 4 13 5 -3 9 1 9 8
0 10 3 9 9 -1 8 -12 14 -13 36 -3 15 7 30 10 34 7 5 -2 19 4 31 15 34 29 43
25 38 -17 -4 -32 0 -43 26 -70 39 -42 61 -44 53 -3 -8 36 10 50 22 18 l10 -23
0 23 c1 13 -8 31 -19 40 -10 10 -21 31 -22 47 -2 17 -7 34 -13 38 -6 5 -1 6
10 4 11 -2 19 -9 18 -15z m591 -4 c9 -36 7 -48 -9 -48 -8 0 -15 7 -15 15 0 8
-4 15 -9 15 -5 0 -7 9 -4 20 7 27 29 25 37 -2z m-774 -8 c0 -5 -5 -10 -11 -10
-5 0 -7 5 -4 10 3 6 8 10 11 10 2 0 4 -4 4 -10z m892 -35 c0 -5 -5 -11 -11
-13 -6 -2 -11 4 -11 13 0 9 5 15 11 13 6 -2 11 -8 11 -13z m-177 -5 c3 -5 1
-10 -4 -10 -6 0 -11 5 -11 10 0 6 2 10 4 10 3 0 8 -4 11 -10z m-41 -26 c9 -24
7 -27 -9 -10 -17 17 -19 26 -6 26 5 0 12 -7 15 -16z m-789 -34 c3 -5 1 -10 -4
-10 -6 0 -11 5 -11 10 0 6 2 10 4 10 3 0 8 -4 11 -10z m-50 -60 c3 -5 1 -10
-4 -10 -6 0 -11 5 -11 10 0 6 2 10 4 10 3 0 8 -4 11 -10z m1062 -26 c-3 -3
-12 -4 -19 -1 -8 3 -5 6 6 6 11 1 17 -2 13 -5z m-175 -26 c-7 -7 -12 -8 -12
-2 0 14 12 26 19 19 2 -3 -1 -11 -7 -17z m-886 -15 c11 -51 12 -53 42 -47 22
5 29 2 29 -11 0 -9 -12 -21 -26 -27 -14 -6 -21 -12 -15 -15 6 -2 9 -15 6 -28
-4 -22 -6 -23 -19 -9 -9 8 -17 13 -20 10 -8 -7 17 -47 27 -41 11 7 40 -5 40
-16 0 -5 -8 -9 -17 -9 -15 0 -16 -2 -3 -10 9 -6 10 -10 3 -10 -6 0 -14 4 -17
8 -6 10 -36 9 -53 -1 -17 -11 -24 20 -7 34 13 10 12 15 -6 34 -28 30 -25 55 9
68 28 10 28 10 15 54 -7 24 -9 43 -4 43 5 0 12 -12 16 -27z m595 -46 c-8 -8
-11 -4 -11 14 0 33 14 47 18 19 2 -12 -1 -27 -7 -33z m-31 20 c0 -16 -6 -23
-20 -24 -11 -1 -20 2 -20 8 0 5 7 9 15 9 8 0 15 7 15 15 0 8 2 15 5 15 3 0 5
-10 5 -23z m-80 -28 c0 -10 -4 -19 -10 -19 -5 0 -10 -12 -10 -27 -1 -27 -1
-27 -15 -8 -13 17 -13 20 0 28 8 4 15 19 15 33 0 14 4 22 10 19 6 -3 10 -15
10 -26z m-90 -10 c0 -5 -4 -9 -10 -9 -5 0 -10 7 -10 16 0 8 5 12 10 9 6 -3 10
-10 10 -16z m345 -29 c10 -11 14 -20 9 -20 -12 1 -44 25 -44 34 0 12 17 6 35
-14z m-568 -20 c1 -12 -4 -20 -13 -20 -12 0 -12 4 -4 20 6 11 12 20 13 20 2 0
3 -9 4 -20z m431 -29 c12 -9 13 -15 5 -18 -21 -8 -27 0 -29 37 -1 19 0 26 3
15 2 -11 12 -26 21 -34z m26 43 c18 -7 10 -34 -11 -34 -8 0 -11 5 -8 10 3 6 1
10 -5 10 -6 0 -8 5 -5 10 7 12 8 12 29 4z m-95 -30 c3 -16 1 -17 -13 -5 -19
16 -21 34 -3 29 6 -3 14 -13 16 -24z m-79 -22 c0 -9 15 -31 33 -50 l32 -34
-33 16 c-18 10 -36 24 -39 32 -3 7 -11 14 -18 14 -20 0 -24 23 -6 37 19 13 31
8 31 -15z m-117 -40 c-5 -12 -7 -12 -15 2 -11 20 1 44 12 25 5 -6 6 -19 3 -27z
m-232 -72 c7 -16 -7 -30 -30 -30 -11 0 -9 4 5 15 11 8 14 15 7 15 -7 0 -13 5
-13 10 0 15 24 7 31 -10z m-2891 -738 c0 -4 -13 -22 -29 -40 -17 -17 -28 -32
-25 -32 3 0 -2 -7 -10 -16 -9 -8 -16 -22 -16 -30 0 -8 -4 -13 -9 -10 -15 9
-43 -5 -37 -19 2 -7 -9 -28 -24 -46 -16 -19 -29 -40 -30 -46 0 -7 -6 -13 -13
-13 -40 0 -156 -184 -141 -224 3 -8 -4 -36 -15 -62 -12 -25 -21 -56 -21 -68 0
-28 -23 -71 -38 -72 -7 -1 -16 -2 -22 -3 -5 0 -10 -19 -10 -41 0 -37 -7 -45
-32 -41 -5 0 -8 -6 -8 -14 0 -8 -4 -15 -9 -15 -13 0 -20 -35 -9 -54 6 -11 5
-16 -5 -16 -15 0 -57 -33 -57 -45 0 -4 7 -13 16 -20 21 -15 11 -70 -10 -62 -8
3 -17 2 -22 -3 -5 -5 -21 -11 -36 -14 -21 -3 -32 1 -43 17 -18 25 -31 17 -16
-11 6 -12 11 -35 11 -52 0 -18 9 -43 20 -57 11 -14 20 -35 20 -46 0 -10 8 -57
17 -104 12 -56 14 -86 8 -91 -12 -8 -12 -19 0 -46 6 -13 3 -29 -8 -48 -9 -17
-17 -36 -17 -44 0 -8 -3 -14 -7 -14 -5 0 -7 -24 -6 -52 2 -62 -6 -105 -17 -88
-4 6 -6 23 -4 38 1 15 -2 32 -8 40 -11 12 -21 56 -33 147 -3 22 -10 69 -15
105 -5 36 -14 90 -20 120 -5 30 -8 67 -4 81 3 15 -2 44 -10 64 -9 21 -16 64
-16 97 0 65 -18 77 -33 22 -5 -16 -13 -44 -19 -62 -10 -34 -13 -457 -3 -483 3
-8 -2 -23 -11 -34 -8 -11 -13 -15 -10 -10 2 6 -1 24 -8 40 -41 92 -70 413 -46
500 7 24 8 49 4 57 -16 26 -16 158 0 193 9 18 16 36 16 40 0 8 29 41 69 81 18
18 24 34 23 66 -1 68 35 117 52 72 9 -24 30 -3 46 45 12 37 15 39 41 34 24 -5
29 -2 30 16 1 11 2 26 3 33 0 6 18 20 40 31 21 11 53 34 70 51 57 57 107 88
280 177 155 80 216 103 216 81z m-963 -942 c-4 -58 -9 -122 -13 -142 -12 -70
-24 -39 -24 61 0 94 -10 132 -24 95 -25 -66 -30 -460 -7 -594 6 -30 13 -90 16
-133 3 -44 10 -89 14 -100 7 -20 12 -49 27 -177 3 -19 13 -60 23 -90 10 -30
22 -84 26 -120 4 -36 11 -69 15 -75 11 -14 32 -117 25 -123 -3 -3 -11 0 -17 6
-7 7 -15 12 -19 12 -5 0 -18 -39 -23 -72 -1 -4 -7 -13 -15 -20 -12 -11 -13
-10 -8 5 4 9 3 17 -1 17 -9 0 -82 140 -82 157 0 6 -9 31 -20 56 -14 32 -23 84
-30 179 -5 73 -14 156 -19 183 -32 169 -35 476 -7 635 28 158 45 228 66 264
11 20 20 41 20 46 0 5 12 30 28 55 l27 46 14 -33 c10 -24 12 -60 8 -138z m393
-150 c12 -8 13 -11 1 -19 -9 -6 -10 -11 -2 -15 6 -4 11 -2 11 3 0 6 7 11 15
11 19 0 20 -34 1 -49 -11 -9 -18 -6 -35 18 -32 45 -27 75 9 51z m-625 -168
c-9 -42 -10 -48 -19 -157 -4 -44 -11 -98 -16 -120 -23 -102 -35 -512 -21 -715
8 -116 7 -149 -4 -170 -16 -29 -20 -22 -30 55 -16 114 -20 641 -6 740 16 109
31 182 47 234 8 25 14 54 14 65 0 31 34 138 38 120 2 -9 1 -32 -3 -52z m-386
-959 c-2 -124 -5 -220 -7 -212 -3 8 -11 21 -19 30 -10 12 -14 50 -15 140 -1
68 1 135 5 149 3 14 9 41 12 60 8 44 13 60 20 60 3 0 5 -102 4 -227z m730
-185 c7 -24 16 -55 21 -70 8 -27 8 -27 -15 -10 -24 17 -35 51 -35 104 0 40 14
28 29 -24z m-412 -70 c-3 -8 -6 -5 -6 6 -1 11 2 17 5 13 3 -3 4 -12 1 -19z
m381 -10 c17 -17 15 -39 -3 -32 -13 5 -14 2 -5 -21 13 -33 13 -32 -5 -32 -15
0 -45 54 -45 81 0 19 40 22 58 4z m80 -103 c16 -35 15 -37 -8 -25 -11 6 -20
20 -20 30 0 28 15 25 28 -5z"/>
<path d="M5760 8374 l0 -36 -20 23 c-26 33 -25 13 3 -36 13 -23 36 -76 52
-118 28 -79 45 -104 45 -68 0 11 -4 23 -10 26 -13 8 -13 25 0 25 6 0 16 -11
22 -25 14 -32 38 -16 38 27 0 25 3 28 20 23 26 -8 25 -4 -2 28 -13 14 -39 49
-58 78 -66 98 -90 112 -90 53z"/>
<path d="M5900 8120 c0 -5 5 -10 10 -10 6 0 10 5 10 10 0 6 -4 10 -10 10 -5 0
-10 -4 -10 -10z"/>
<path d="M5740 8114 c0 -7 7 -25 15 -40 8 -16 15 -22 15 -14 -1 18 -29 70 -30
54z"/>
<path d="M5550 7981 c0 -5 -3 -18 -7 -28 -6 -17 -5 -17 15 1 26 22 28 36 7 36
-8 0 -15 -4 -15 -9z"/>
<path d="M5790 7973 c0 -14 19 -38 25 -32 8 8 -5 39 -16 39 -5 0 -9 -3 -9 -7z"/>
<path d="M5035 7830 c4 -6 11 -8 16 -5 14 9 11 15 -7 15 -8 0 -12 -5 -9 -10z"/>
<path d="M4828 7583 c-21 -5 -32 -33 -14 -33 8 0 16 -7 20 -15 8 -21 21 -19
23 5 1 11 -2 20 -7 20 -5 0 -7 7 -4 15 4 8 5 14 3 14 -2 -1 -11 -3 -21 -6z"/>
<path d="M4669 7474 c-12 -14 -11 -16 5 -13 11 2 21 10 24 17 5 17 -13 15 -29
-4z"/>
<path d="M4554 7234 c-13 -39 -5 -42 40 -15 40 23 47 44 11 35 -16 -4 -30 -2
-34 4 -3 6 -11 -5 -17 -24z"/>
<path d="M4425 6990 c3 -5 13 -10 21 -10 8 0 14 5 14 10 0 6 -9 10 -21 10 -11
0 -17 -4 -14 -10z"/>
<path d="M4350 6911 c0 -6 5 -13 10 -16 6 -3 10 1 10 9 0 9 -4 16 -10 16 -5 0
-10 -4 -10 -9z"/>
<path d="M4344 6863 c0 -11 -5 -17 -14 -15 -12 3 -13 1 -3 -9 11 -10 16 -9 27
6 14 20 13 35 -3 35 -5 0 -8 -8 -7 -17z"/>
<path d="M4481 6778 c-1 -21 3 -26 15 -21 9 3 11 9 6 12 -5 3 -12 13 -15 21
-3 9 -6 4 -6 -12z"/>
<path d="M4560 6760 c20 -13 43 -13 35 0 -3 6 -16 10 -28 10 -18 0 -19 -2 -7
-10z"/>
<path d="M4478 6723 c7 -3 16 -2 19 1 4 3 -2 6 -13 5 -11 0 -14 -3 -6 -6z"/>
<path d="M5993 5934 c-7 -3 -9 -12 -6 -20 3 -9 -2 -14 -17 -14 -11 0 -18 5
-15 10 3 6 -1 10 -9 10 -8 0 -17 -8 -19 -17 -4 -15 -5 -15 -6 2 -1 17 -3 18
-12 5 -7 -10 -12 -11 -15 -4 -8 19 -93 -26 -91 -48 1 -10 8 -18 17 -18 28 0
19 -42 -12 -54 -15 -6 -28 -16 -28 -23 0 -7 -4 -13 -9 -13 -5 0 -4 -13 2 -30
13 -33 30 -38 54 -15 8 9 18 13 21 10 4 -3 1 -10 -7 -14 -10 -6 -9 -10 4 -15
9 -3 14 -10 10 -15 -3 -6 4 -19 15 -29 20 -18 24 -19 51 -5 19 10 28 20 25 29
-3 8 1 17 9 20 8 4 15 14 15 24 0 11 5 22 10 25 6 4 8 10 5 15 -3 5 6 17 20
28 14 11 25 24 25 29 0 15 36 44 43 36 4 -3 7 6 7 20 0 28 -24 38 -33 15 -2
-7 -9 2 -14 21 -9 35 -18 43 -40 35z"/>
<path d="M5806 5923 c-11 -11 -6 -23 8 -23 8 0 17 4 20 9 7 10 -19 23 -28 14z"/>
<path d="M4397 5743 c3 -7 9 -13 13 -13 4 0 10 6 13 13 3 7 -3 13 -13 13 -10
0 -16 -6 -13 -13z"/>
<path d="M6067 5682 c-23 -25 -21 -32 8 -32 14 0 25 5 25 11 0 5 4 8 9 5 10
-7 23 19 14 28 -12 12 -40 6 -56 -12z"/>
<path d="M4398 5653 c6 -2 18 -2 25 0 6 3 1 5 -13 5 -14 0 -19 -2 -12 -5z"/>
<path d="M6105 5640 c-3 -5 1 -10 9 -10 9 0 16 5 16 10 0 6 -4 10 -9 10 -6 0
-13 -4 -16 -10z"/>
<path d="M6188 5573 c7 -3 16 -2 19 1 4 3 -2 6 -13 5 -11 0 -14 -3 -6 -6z"/>
<path d="M6004 5523 c4 -7 2 -13 -3 -13 -6 0 -11 -7 -11 -16 0 -14 2 -14 16 1
14 13 14 19 4 28 -10 9 -11 9 -6 0z"/>
<path d="M5475 5440 c3 -5 8 -10 11 -10 2 0 4 5 4 10 0 6 -5 10 -11 10 -5 0
-7 -4 -4 -10z"/>
<path d="M5578 5283 c7 -3 16 -2 19 1 4 3 -2 6 -13 5 -11 0 -14 -3 -6 -6z"/>
<path d="M5643 5080 c-6 -23 -14 -25 -31 -8 -8 8 -12 8 -12 1 0 -6 -12 -10
-27 -10 -16 0 -39 -3 -52 -7 -23 -8 -23 -9 19 -47 42 -39 43 -42 5 -40 -18 1
-18 0 3 -9 22 -9 31 -30 12 -30 -5 0 -10 4 -10 10 0 5 -7 7 -15 4 -9 -4 -15 0
-15 10 0 9 -8 16 -17 16 -13 0 -14 -3 -6 -11 6 -6 9 -17 7 -24 -8 -19 44 -27
86 -15 51 15 69 12 37 -6 -35 -19 -30 -28 6 -15 23 9 26 15 21 41 -5 25 -3 30
12 30 16 0 17 -2 4 -10 -9 -6 -10 -10 -3 -10 6 0 14 4 17 8 8 13 -11 35 -23
28 -6 -4 -11 -1 -11 8 0 8 -6 16 -12 19 -10 3 -10 7 -2 18 12 14 25 69 17 69
-3 0 -7 -9 -10 -20z"/>
<path d="M4881 5057 c-9 -12 -8 -16 3 -20 19 -7 32 11 19 24 -6 6 -14 5 -22
-4z"/>
<path d="M5320 5015 c0 -8 7 -15 16 -15 14 0 14 3 4 15 -7 8 -14 15 -16 15 -2
0 -4 -7 -4 -15z"/>
<path d="M4956 4981 c-4 -7 -5 -15 -2 -18 9 -9 19 4 14 18 -4 11 -6 11 -12 0z"/>
<path d="M5453 4954 c0 -16 13 -19 21 -5 3 5 0 11 -7 14 -8 3 -14 -1 -14 -9z"/>
<path d="M5050 4917 c0 -14 -3 -32 -6 -41 -3 -9 -1 -16 5 -16 6 0 11 7 11 15
0 8 5 15 11 15 14 0 7 42 -8 48 -8 2 -13 -6 -13 -21z"/>
<path d="M5620 4883 c0 -5 5 -15 10 -23 8 -12 10 -11 10 8 0 12 -4 22 -10 22
-5 0 -10 -3 -10 -7z"/>
<path d="M3692 8218 c6 -16 48 -43 48 -30 0 13 -28 42 -42 42 -5 0 -8 -5 -6
-12z"/>
<path d="M695 7990 c3 -5 8 -10 11 -10 2 0 4 5 4 10 0 6 -5 10 -11 10 -5 0 -7
-4 -4 -10z"/>
<path d="M2481 7744 c0 -11 3 -14 6 -6 3 7 2 16 -1 19 -3 4 -6 -2 -5 -13z"/>
<path d="M594 5115 c-4 -8 -1 -22 6 -31 7 -8 13 -30 12 -49 -1 -36 11 -47 22
-19 3 8 10 13 15 9 5 -3 12 -1 16 5 3 5 -1 10 -9 10 -10 0 -13 6 -10 15 4 8 2
15 -3 15 -6 0 -9 14 -8 30 1 23 -2 30 -17 30 -10 0 -21 -7 -24 -15z"/>
<path d="M3930 4829 c0 -5 5 -7 10 -4 6 3 10 8 10 11 0 2 -4 4 -10 4 -5 0 -10
-5 -10 -11z"/>
<path d="M5187 4391 c-3 -12 1 -22 10 -25 8 -4 11 -1 8 5 -4 6 1 17 11 24 18
14 18 14 -2 15 -13 0 -24 -8 -27 -19z"/>
<path d="M4930 4391 c0 -10 24 -21 43 -21 7 0 3 7 -7 15 -22 17 -36 19 -36 6z"/>
<path d="M5070 4354 c0 -3 10 -19 21 -36 14 -20 28 -28 40 -25 10 3 20 0 23
-7 2 -6 5 -3 5 7 1 9 -6 17 -14 17 -8 0 -15 4 -15 9 0 15 -30 41 -46 41 -8 0
-14 -3 -14 -6z"/>
<path d="M5185 4140 c-3 -5 -1 -10 4 -10 6 0 11 5 11 10 0 6 -2 10 -4 10 -3 0
-8 -4 -11 -10z"/>
<path d="M5213 4108 c2 -7 12 -13 22 -13 10 0 20 6 23 13 2 7 -6 12 -23 12
-17 0 -25 -5 -22 -12z"/>
<path d="M5170 4091 c0 -6 4 -13 10 -16 6 -3 7 1 4 9 -7 18 -14 21 -14 7z"/>
<path d="M5026 4055 c-3 -8 -1 -15 4 -15 6 0 10 7 10 15 0 8 -2 15 -4 15 -2 0
-6 -7 -10 -15z"/>
<path d="M5100 3960 c0 -5 7 -10 16 -10 8 0 12 5 9 10 -3 6 -10 10 -16 10 -5
0 -9 -4 -9 -10z"/>
<path d="M4633 4033 c-13 -2 -23 -9 -23 -14 0 -13 21 -11 50 6 25 14 17 16
-27 8z"/>
<path d="M4700 4000 c-8 -5 -27 -10 -41 -10 -15 0 -32 -6 -39 -14 -6 -8 -18
-12 -26 -9 -10 4 -12 0 -8 -11 3 -9 10 -16 15 -16 5 0 16 -17 25 -37 14 -34
17 -36 27 -20 16 26 40 55 33 40 -4 -6 -1 -15 5 -19 8 -5 10 1 7 20 -3 14 -2
26 3 26 13 0 32 41 22 51 -4 4 -15 4 -23 -1z"/>
<path d="M4938 3918 c-7 -19 2 -38 18 -38 8 0 14 10 14 25 0 26 -24 35 -32 13z"/>
<path d="M1064 1939 c-3 -6 -1 -16 5 -22 8 -8 11 -5 11 11 0 24 -5 28 -16 11z"/>
<path d="M4595 9575 c37 -30 42 -30 55 -6 15 30 14 31 -37 31 l-48 0 30 -25z"/>
<path d="M7594 9578 c3 -13 6 -26 6 -30 0 -15 86 -8 109 8 13 9 42 23 65 30
39 12 35 13 -73 13 -113 1 -113 1 -107 -21z"/>
<path d="M2943 9163 c-7 -2 -12 -14 -12 -26 1 -17 2 -18 6 -4 2 9 9 15 14 12
5 -4 9 1 9 9 0 9 -1 16 -2 15 -2 0 -9 -3 -15 -6z"/>
<path d="M4531 9071 c-19 -12 1 -17 51 -13 28 3 36 7 27 13 -18 11 -60 11 -78
0z"/>
<path d="M4088 9053 c7 -3 16 -2 19 1 4 3 -2 6 -13 5 -11 0 -14 -3 -6 -6z"/>
<path d="M4630 9030 c0 -16 5 -21 23 -18 12 2 22 10 22 18 0 8 -10 16 -22 18
-18 3 -23 -2 -23 -18z"/>
<path d="M3910 9001 c0 -8 -7 -10 -19 -6 -12 4 -21 0 -25 -11 -5 -14 -1 -16
26 -10 39 8 45 13 30 28 -9 9 -12 9 -12 -1z"/>
<path d="M3645 8990 c-8 -13 4 -50 16 -50 5 0 9 -6 9 -14 0 -8 10 -22 22 -30
12 -9 18 -16 13 -16 -6 0 -5 -4 1 -8 6 -4 15 -15 21 -26 9 -17 11 -16 15 8 3
17 1 25 -5 23 -17 -5 -60 64 -48 76 8 8 6 16 -6 29 -18 20 -29 23 -38 8z"/>
<path d="M6000 8935 c0 -23 2 -24 21 -15 16 9 18 14 8 26 -17 21 -29 17 -29
-11z"/>
<path d="M4020 8936 c-36 -16 -21 -26 38 -26 63 0 78 6 59 24 -14 13 -69 15
-97 2z"/>
<path d="M3443 8899 c3 -9 1 -21 -5 -27 -7 -7 -4 -21 12 -46 12 -20 24 -36 27
-36 11 0 -9 55 -23 63 -11 6 -12 12 -5 21 7 8 6 17 -1 26 -8 13 -9 12 -5 -1z"/>
<path d="M4135 8900 c-3 -5 1 -10 9 -10 9 0 16 5 16 10 0 6 -4 10 -9 10 -6 0
-13 -4 -16 -10z"/>
<path d="M4047 8874 c3 -8 11 -13 18 -10 7 2 18 -1 24 -7 9 -9 14 -8 21 3 11
18 13 16 -32 23 -30 4 -36 3 -31 -9z"/>
<path d="M3908 8868 c9 -9 15 -9 24 0 9 9 7 12 -12 12 -19 0 -21 -3 -12 -12z"/>
<path d="M3940 8841 c0 -5 5 -13 10 -16 6 -3 10 -2 10 4 0 5 -4 13 -10 16 -5
3 -10 2 -10 -4z"/>
<path d="M3757 8812 c-9 -47 -3 -77 16 -80 12 -2 17 3 19 20 2 40 -2 59 -16
73 -12 12 -14 10 -19 -13z"/>
<path d="M3414 8790 c3 -14 6 -33 6 -42 0 -10 7 -18 15 -18 8 0 15 -4 15 -10
0 -5 5 -10 12 -10 9 0 9 3 0 12 -7 7 -12 20 -12 29 0 9 -9 27 -21 40 l-21 24
6 -25z"/>
<path d="M3155 8771 c-16 -9 -35 -22 -43 -28 -7 -7 -17 -13 -22 -13 -22 0 -19
-35 7 -62 32 -34 46 -25 33 22 l-10 35 25 -27 c14 -15 25 -34 25 -43 0 -8 5
-15 10 -15 6 0 10 -5 10 -12 0 -9 -3 -9 -12 0 -14 14 -28 16 -28 3 0 -14 75
-91 88 -91 18 0 14 14 -8 28 -15 9 -21 23 -20 50 1 52 -10 143 -18 157 -5 8
-15 7 -37 -4z"/>
<path d="M2310 8606 c0 -12 -5 -16 -16 -12 -11 4 -18 -1 -21 -14 -3 -11 -9
-20 -13 -20 -5 0 -6 -9 -3 -20 7 -28 22 -25 33 6 7 17 15 24 25 20 17 -6 20
20 5 44 -8 13 -10 12 -10 -4z"/>
<path d="M4496 8604 c-4 -12 -2 -15 9 -11 8 4 28 -5 45 -19 38 -32 39 -22 3
17 -31 33 -48 36 -57 13z"/>
<path d="M2233 8481 c0 -14 2 -20 4 -13 3 6 14 12 25 12 26 0 18 23 -9 25 -16
1 -20 -4 -20 -24z"/>
<path d="M3365 8500 c-3 -5 -1 -10 4 -10 6 0 11 5 11 10 0 6 -2 10 -4 10 -3 0
-8 -4 -11 -10z"/>
<path d="M2216 8431 c-4 -5 -2 -12 3 -15 5 -4 12 -2 15 3 4 5 2 12 -3 15 -5 4
-12 2 -15 -3z"/>
<path d="M2400 8430 c0 -5 5 -10 10 -10 6 0 10 5 10 10 0 6 -4 10 -10 10 -5 0
-10 -4 -10 -10z"/>
<path d="M4470 8410 c0 -11 39 -20 45 -10 3 4 -6 10 -20 12 -14 3 -25 2 -25
-2z"/>
<path d="M4037 8373 c-11 -10 -8 -25 3 -18 6 4 22 -1 35 -9 14 -9 25 -12 25
-7 0 5 -11 16 -25 25 -28 18 -29 19 -38 9z"/>
<path d="M2375 8360 c-3 -5 -2 -10 4 -10 5 0 13 5 16 10 3 6 2 10 -4 10 -5 0
-13 -4 -16 -10z"/>
<path d="M4140 8290 c0 -5 6 -10 14 -10 8 0 18 5 21 10 3 6 -3 10 -14 10 -12
0 -21 -4 -21 -10z"/>
<path d="M2290 8261 c0 -6 5 -13 10 -16 6 -3 10 1 10 9 0 9 -4 16 -10 16 -5 0
-10 -4 -10 -9z"/>
<path d="M2157 7990 c3 -11 7 -20 8 -20 1 0 5 9 8 20 3 12 0 20 -8 20 -8 0
-11 -8 -8 -20z"/>
</g>
</svg>
